<svg width="256" height="256" viewBox="0 0 256 256" fill="none" xmlns="http://www.w3.org/2000/svg">
<g clip-path="url(#clip0_713_57078)">
<rect x="176" y="48" width="48" height="48" stroke="#9FCBB3"/>
<rect x="176" y="96" width="48" height="96" stroke="#9FCBB3"/>
<rect x="128" y="144" width="48" height="48" stroke="#9FCBB3"/>
<rect x="176" y="192" width="48" height="48" stroke="#9FCBB3"/>
<rect x="128" y="192" width="48" height="48" stroke="#9FCBB3"/>
<rect x="80" width="48" height="48" stroke="#9FCBB3"/>
<rect x="32" y="48" width="144" height="48" stroke="#9FCBB3"/>
<rect x="32" width="48" height="48" stroke="#9FCBB3"/>
</g>
<g filter="url(#filter0_d_713_57078)">
<rect x="92" y="64" width="72" height="128" rx="16" fill="white"/>
<rect x="96" y="68" width="64" height="120" rx="12" fill="#E9E9E9"/>
<path d="M114 68H142C142 70.2091 140.209 72 138 72H118C115.791 72 114 70.2091 114 68Z" fill="white"/>
<g filter="url(#filter1_d_713_57078)">
<path d="M100 86C100 83.7909 101.791 82 104 82H112V94H100V86Z" fill="#107C41"/>
<rect x="112" y="82" width="22" height="12" fill="#107C41"/>
<path d="M134 82H152C154.209 82 156 83.7909 156 86V94H134V82Z" fill="#107C41"/>
<rect x="100" y="94" width="12" height="12" fill="#CFE5D9"/>
<rect x="100" y="142" width="12" height="12" fill="#CFE5D9"/>
<rect x="100" y="154" width="12" height="12" fill="#CFE5D9"/>
<path d="M100 166H112V178H104C101.791 178 100 176.209 100 174V166Z" fill="#CFE5D9"/>
<rect x="100" y="106" width="12" height="12" fill="#CFE5D9"/>
<rect x="112" y="94" width="22" height="12" fill="white"/>
<rect x="112" y="142" width="22" height="12" fill="white"/>
<path d="M134 166H156V174C156 176.209 154.209 178 152 178H134V166Z" fill="white"/>
<rect x="112" y="106" width="22" height="12" fill="white"/>
<rect x="134" y="154" width="22" height="12" fill="white"/>
<rect x="134" y="94" width="22" height="12" fill="white"/>
<rect x="134" y="142" width="22" height="12" fill="white"/>
<rect x="112" y="154" width="22" height="12" fill="white"/>
<rect x="134" y="106" width="22" height="12" fill="white"/>
<rect x="112" y="166" width="22" height="12" fill="white"/>
<path d="M117 88C117 87.4477 117.448 87 118 87H128C128.552 87 129 87.4477 129 88C129 88.5523 128.552 89 128 89H118C117.448 89 117 88.5523 117 88Z" fill="#409667"/>
<path d="M139 88C139 87.4477 139.448 87 140 87H150C150.552 87 151 87.4477 151 88C151 88.5523 150.552 89 150 89H140C139.448 89 139 88.5523 139 88Z" fill="#409667"/>
<path d="M103 88C103 87.4477 103.448 87 104 87H108C108.552 87 109 87.4477 109 88C109 88.5523 108.552 89 108 89H104C103.448 89 103 88.5523 103 88Z" fill="#409667"/>
<path d="M139 100C139 99.4477 139.448 99 140 99H150C150.552 99 151 99.4477 151 100C151 100.552 150.552 101 150 101H140C139.448 101 139 100.552 139 100Z" fill="#CDD7D2"/>
<path d="M139 148C139 147.448 139.448 147 140 147H150C150.552 147 151 147.448 151 148C151 148.552 150.552 149 150 149H140C139.448 149 139 148.552 139 148Z" fill="#CDD7D2"/>
<path d="M117 160C117 159.448 117.448 159 118 159H128C128.552 159 129 159.448 129 160C129 160.552 128.552 161 128 161H118C117.448 161 117 160.552 117 160Z" fill="#CDD7D2"/>
<path d="M145.5 112C145.5 111.448 145.948 111 146.5 111H150.5C151.052 111 151.5 111.448 151.5 112C151.5 112.552 151.052 113 150.5 113H146.5C145.948 113 145.5 112.552 145.5 112Z" fill="#CDD7D2"/>
<path d="M123.5 172C123.5 171.448 123.948 171 124.5 171H128.5C129.052 171 129.5 171.448 129.5 172C129.5 172.552 129.052 173 128.5 173H124.5C123.948 173 123.5 172.552 123.5 172Z" fill="#CDD7D2"/>
<path d="M138.5 112C138.5 111.448 138.948 111 139.5 111H143.5C144.052 111 144.5 111.448 144.5 112C144.5 112.552 144.052 113 143.5 113H139.5C138.948 113 138.5 112.552 138.5 112Z" fill="#CDD7D2"/>
<path d="M116.5 172C116.5 171.448 116.948 171 117.5 171H121.5C122.052 171 122.5 171.448 122.5 172C122.5 172.552 122.052 173 121.5 173H117.5C116.948 173 116.5 172.552 116.5 172Z" fill="#CDD7D2"/>
<path d="M116.5 100C116.5 99.4477 116.948 99 117.5 99H119.5C120.052 99 120.5 99.4477 120.5 100C120.5 100.552 120.052 101 119.5 101H117.5C116.948 101 116.5 100.552 116.5 100Z" fill="#CDD7D2"/>
<path d="M116.5 148C116.5 147.448 116.948 147 117.5 147H119.5C120.052 147 120.5 147.448 120.5 148C120.5 148.552 120.052 149 119.5 149H117.5C116.948 149 116.5 148.552 116.5 148Z" fill="#CDD7D2"/>
<path d="M138.5 172C138.5 171.448 138.948 171 139.5 171H141.5C142.052 171 142.5 171.448 142.5 172C142.5 172.552 142.052 173 141.5 173H139.5C138.948 173 138.5 172.552 138.5 172Z" fill="#CDD7D2"/>
<path d="M121.5 100C121.5 99.4477 121.948 99 122.5 99H128.5C129.052 99 129.5 99.4477 129.5 100C129.5 100.552 129.052 101 128.5 101H122.5C121.948 101 121.5 100.552 121.5 100Z" fill="#CDD7D2"/>
<path d="M121.5 148C121.5 147.448 121.948 147 122.5 147H128.5C129.052 147 129.5 147.448 129.5 148C129.5 148.552 129.052 149 128.5 149H122.5C121.948 149 121.5 148.552 121.5 148Z" fill="#CDD7D2"/>
<path d="M143.5 172C143.5 171.448 143.948 171 144.5 171H150.5C151.052 171 151.5 171.448 151.5 172C151.5 172.552 151.052 173 150.5 173H144.5C143.948 173 143.5 172.552 143.5 172Z" fill="#CDD7D2"/>
<path d="M115.5 112C115.5 111.448 115.948 111 116.5 111H122.5C123.052 111 123.5 111.448 123.5 112C123.5 112.552 123.052 113 122.5 113H116.5C115.948 113 115.5 112.552 115.5 112Z" fill="#CDD7D2"/>
<path d="M137.5 160C137.5 159.448 137.948 159 138.5 159H144.5C145.052 159 145.5 159.448 145.5 160C145.5 160.552 145.052 161 144.5 161H138.5C137.948 161 137.5 160.552 137.5 160Z" fill="#CDD7D2"/>
<path d="M124.5 112C124.5 111.448 124.948 111 125.5 111H129.5C130.052 111 130.5 111.448 130.5 112C130.5 112.552 130.052 113 129.5 113H125.5C124.948 113 124.5 112.552 124.5 112Z" fill="#CDD7D2"/>
<path d="M146.5 160C146.5 159.448 146.948 159 147.5 159H151.5C152.052 159 152.5 159.448 152.5 160C152.5 160.552 152.052 161 151.5 161H147.5C146.948 161 146.5 160.552 146.5 160Z" fill="#CDD7D2"/>
<path d="M104 100C104 99.4477 104.448 99 105 99H107C107.552 99 108 99.4477 108 100C108 100.552 107.552 101 107 101H105C104.448 101 104 100.552 104 100Z" fill="#9FCBB3"/>
<path d="M104 148C104 147.448 104.448 147 105 147H107C107.552 147 108 147.448 108 148C108 148.552 107.552 149 107 149H105C104.448 149 104 148.552 104 148Z" fill="#9FCBB3"/>
<path d="M104 160C104 159.448 104.448 159 105 159H107C107.552 159 108 159.448 108 160C108 160.552 107.552 161 107 161H105C104.448 161 104 160.552 104 160Z" fill="#9FCBB3"/>
<path d="M104 172C104 171.448 104.448 171 105 171H107C107.552 171 108 171.448 108 172C108 172.552 107.552 173 107 173H105C104.448 173 104 172.552 104 172Z" fill="#9FCBB3"/>
<path d="M104 112C104 111.448 104.448 111 105 111H107C107.552 111 108 111.448 108 112C108 112.552 107.552 113 107 113H105C104.448 113 104 112.552 104 112Z" fill="#9FCBB3"/>
</g>
<g filter="url(#filter2_d_713_57078)">
<rect x="88" y="118" width="93" height="24" rx="8" fill="white"/>
<path d="M88 126C88 121.582 91.5817 118 96 118H112V142H96C91.5817 142 88 138.418 88 134V126Z" fill="#CFE5D9"/>
<rect x="118" y="128.5" width="12" height="3" rx="1.5" fill="#D2D2D2"/>
<rect x="132" y="128.5" width="8" height="3" rx="1.5" fill="#D2D2D2"/>
<rect x="155.5" y="128.5" width="16" height="3" rx="1.5" fill="#D2D2D2"/>
<rect x="94" y="128.5" width="12" height="3" rx="1.5" fill="#9FCBB3"/>
</g>
<g clip-path="url(#clip1_713_57078)" filter="url(#filter3_d_713_57078)">
<path d="M159.3 146.9H160.9V145.3H164.1V146.9H165.7V137.3H167.3V135.7H170.5V137.3H172.1V142.1H178.5V143.7H181.7V145.3H183.3V153.3H181.7V156.5H180.1V161.3H176.9V159.7H175.3V161.3H167.3V158.1H165.7V156.5H164.1V154.9H162.5V151.7H160.9V150.1H159.3V146.9Z" fill="#211D1E"/>
<path d="M160.9 146.9H164.1V148.5H165.7V150.1H167.3V137.3H170.5V146.9H172.1V143.7H175.3V146.9H176.9V143.7H178.5V146.9H180.1V145.3H181.7V153.3H180.1V156.5H178.5V159.7H176.9V158.1H175.3V159.7H168.9V158.1H167.3V156.5H165.7V154.9H164.1V151.7H162.5V150.1H160.9V146.9Z" fill="white"/>
<rect x="170.5" y="150.1" width="1.6" height="6.4" fill="#211D1E"/>
<rect x="173.7" y="150.1" width="1.6" height="6.4" fill="#211D1E"/>
<rect x="176.9" y="150.1" width="1.6" height="6.4" fill="#211D1E"/>
</g>
</g>
<defs>
<filter id="filter0_d_713_57078" x="56" y="58" width="144" height="144" filterUnits="userSpaceOnUse" color-interpolation-filters="sRGB">
<feFlood flood-opacity="0" result="BackgroundImageFix"/>
<feColorMatrix in="SourceAlpha" type="matrix" values="0 0 0 0 0 0 0 0 0 0 0 0 0 0 0 0 0 0 127 0" result="hardAlpha"/>
<feOffset dy="2"/>
<feGaussianBlur stdDeviation="4"/>
<feColorMatrix type="matrix" values="0 0 0 0 0 0 0 0 0 0 0 0 0 0 0 0 0 0 0.15 0"/>
<feBlend mode="normal" in2="BackgroundImageFix" result="effect1_dropShadow_713_57078"/>
<feBlend mode="normal" in="SourceGraphic" in2="effect1_dropShadow_713_57078" result="shape"/>
</filter>
<filter id="filter1_d_713_57078" x="92" y="76" width="72" height="112" filterUnits="userSpaceOnUse" color-interpolation-filters="sRGB">
<feFlood flood-opacity="0" result="BackgroundImageFix"/>
<feColorMatrix in="SourceAlpha" type="matrix" values="0 0 0 0 0 0 0 0 0 0 0 0 0 0 0 0 0 0 127 0" result="hardAlpha"/>
<feOffset dy="2"/>
<feGaussianBlur stdDeviation="4"/>
<feColorMatrix type="matrix" values="0 0 0 0 0 0 0 0 0 0 0 0 0 0 0 0 0 0 0.15 0"/>
<feBlend mode="normal" in2="BackgroundImageFix" result="effect1_dropShadow_713_57078"/>
<feBlend mode="normal" in="SourceGraphic" in2="effect1_dropShadow_713_57078" result="shape"/>
</filter>
<filter id="filter2_d_713_57078" x="76" y="110" width="117" height="48" filterUnits="userSpaceOnUse" color-interpolation-filters="sRGB">
<feFlood flood-opacity="0" result="BackgroundImageFix"/>
<feColorMatrix in="SourceAlpha" type="matrix" values="0 0 0 0 0 0 0 0 0 0 0 0 0 0 0 0 0 0 127 0" result="hardAlpha"/>
<feOffset dy="4"/>
<feGaussianBlur stdDeviation="6"/>
<feColorMatrix type="matrix" values="0 0 0 0 0 0 0 0 0 0 0 0 0 0 0 0 0 0 0.32 0"/>
<feBlend mode="normal" in2="BackgroundImageFix" result="effect1_dropShadow_713_57078"/>
<feBlend mode="normal" in="SourceGraphic" in2="effect1_dropShadow_713_57078" result="shape"/>
</filter>
<filter id="filter3_d_713_57078" x="157.3" y="134.7" width="28" height="29.6001" filterUnits="userSpaceOnUse" color-interpolation-filters="sRGB">
<feFlood flood-opacity="0" result="BackgroundImageFix"/>
<feColorMatrix in="SourceAlpha" type="matrix" values="0 0 0 0 0 0 0 0 0 0 0 0 0 0 0 0 0 0 127 0" result="hardAlpha"/>
<feOffset dy="1"/>
<feGaussianBlur stdDeviation="1"/>
<feColorMatrix type="matrix" values="0 0 0 0 0 0 0 0 0 0 0 0 0 0 0 0 0 0 0.3 0"/>
<feBlend mode="normal" in2="BackgroundImageFix" result="effect1_dropShadow_713_57078"/>
<feBlend mode="normal" in="SourceGraphic" in2="effect1_dropShadow_713_57078" result="shape"/>
</filter>
<clipPath id="clip0_713_57078">
<rect width="256" height="256" fill="white"/>
</clipPath>
<clipPath id="clip1_713_57078">
<rect width="24" height="25.6" fill="white" transform="translate(159.3 135.7)"/>
</clipPath>
</defs>
</svg>
