<svg width="146" height="145" viewBox="0 0 146 145" fill="none" xmlns="http://www.w3.org/2000/svg">
<g filter="url(#filter0_d_615_0)">
<path d="M113 103H137V119C137 123.418 133.418 127 129 127H113V103Z" fill="white" stroke="#D2D2D2"/>
<rect x="89" y="103" width="24" height="24" fill="white" stroke="#D2D2D2"/>
<rect x="41" y="103" width="48" height="24" fill="white" stroke="#D2D2D2"/>
<path d="M9 103H41V127H17C12.5817 127 9 123.418 9 119V103Z" fill="white" stroke="#D2D2D2"/>
<rect x="113" y="79" width="24" height="24" fill="white" stroke="#D2D2D2"/>
<rect x="89" y="79" width="24" height="24" fill="white" stroke="#D2D2D2"/>
<rect x="41" y="79" width="48" height="24" fill="white" stroke="#D2D2D2"/>
<rect x="9" y="79" width="32" height="24" fill="white" stroke="#D2D2D2"/>
<rect x="113" y="55" width="24" height="24" fill="white" stroke="#D2D2D2"/>
<rect x="89" y="55" width="24" height="24" fill="white" stroke="#D2D2D2"/>
<rect x="41" y="55" width="48" height="24" fill="white" stroke="#D2D2D2"/>
<rect x="9" y="55" width="32" height="24" fill="white" stroke="#D2D2D2"/>
<rect x="113" y="31" width="24" height="24" fill="white" stroke="#D2D2D2"/>
<rect x="89" y="31" width="24" height="24" fill="white" stroke="#D2D2D2"/>
<rect x="41" y="31" width="48" height="24" fill="white" stroke="#D2D2D2"/>
<rect x="9" y="31" width="32" height="24" fill="white" stroke="#D2D2D2"/>
<path d="M113 7H129C133.418 7 137 10.5817 137 15V31H113V7Z" fill="white" stroke="#D2D2D2"/>
<rect x="89" y="7" width="24" height="24" fill="white" stroke="#D2D2D2"/>
<rect x="41" y="7" width="48" height="24" fill="white" stroke="#D2D2D2"/>
<path d="M9 15C9 10.5817 12.5817 7 17 7H41V31H9V15Z" fill="white" stroke="#D2D2D2"/>
<rect x="119" y="113" width="12" height="4" rx="2" fill="#D2D2D2"/>
<rect x="95" y="113" width="12" height="4" rx="2" fill="#D2D2D2"/>
<rect x="17" y="113" width="16" height="4" rx="2" fill="#D2D2D2"/>
<rect x="119" y="89" width="12" height="4" rx="2" fill="#D2D2D2"/>
<rect x="95" y="89" width="12" height="4" rx="2" fill="#D2D2D2"/>
<rect x="81" y="93" width="12" height="4" rx="2" transform="rotate(-180 81 93)" fill="#D2D2D2"/>
<rect x="65" y="93" width="16" height="4" rx="2" transform="rotate(-180 65 93)" fill="#D2D2D2"/>
<rect x="17" y="89" width="16" height="4" rx="2" fill="#D2D2D2"/>
<rect x="119" y="65" width="12" height="4" rx="2" fill="#CF1322"/>
<rect x="95" y="65" width="12" height="4" rx="2" fill="#D2D2D2"/>
<rect x="73" y="65" width="8" height="4" rx="2" fill="#D2D2D2"/>
<rect x="49" y="65" width="20" height="4" rx="2" fill="#D2D2D2"/>
<rect x="17" y="65" width="16" height="4" rx="2" fill="#D2D2D2"/>
<rect x="119" y="41" width="12" height="4" rx="2" fill="#D2D2D2"/>
<rect x="95" y="41" width="12" height="4" rx="2" fill="#D2D2D2"/>
<rect x="65" y="41" width="16" height="4" rx="2" fill="#D2D2D2"/>
<rect x="49" y="41" width="12" height="4" rx="2" fill="#D2D2D2"/>
<path d="M17 43C17 41.8954 17.8954 41 19 41H25V45H19C17.8954 45 17 44.1046 17 43Z" fill="#4D4D4D"/>
<rect x="119" y="17" width="12" height="4" rx="2" fill="#D2D2D2"/>
<rect x="95" y="17" width="12" height="4" rx="2" fill="#4D4D4D"/>
<rect x="49" y="17" width="32" height="4" rx="2" fill="#D2D2D2"/>
<rect x="17" y="17" width="16" height="4" rx="2" fill="#D2D2D2"/>
<rect x="42" y="104" width="46" height="22" stroke="#FA8C16" stroke-width="2"/>
<rect x="10" y="32" width="30" height="22" stroke="#107C41" stroke-width="2"/>
<rect x="114" y="56" width="22" height="22" stroke="#CF1322" stroke-width="2"/>
<path d="M90 8H112V30H90V8Z" stroke="#2797FF" stroke-width="2"/>
<g filter="url(#filter1_d_615_0)">
<g clip-path="url(#clip0_615_0)">
<path d="M62 116H63V117H64V118H65V119H66V120H67V121H68V122H69V123H70V124H71V125H72V126H73V127H69V128H70V130H71V132H70V133H68V132H67V130H66V128H65V129H64V130H63V131H62V116Z" fill="white"/>
<path d="M63 118H64V119H65V120H66V121H67V122H68V123H69V124H70V125H71V126H68V128H69V130H70V132H68V130H67V128H66V127H65V128H64V129H63V118Z" fill="#FA8C16"/>
</g>
</g>
<g filter="url(#filter2_d_615_0)">
<g clip-path="url(#clip1_615_0)">
<path d="M118 74H119V75H120V76H121V77H122V78H123V79H124V80H125V81H126V82H127V83H128V84H129V85H125V86H126V88H127V90H126V91H124V90H123V88H122V86H121V87H120V88H119V89H118V74Z" fill="white"/>
<path d="M119 76H120V77H121V78H122V79H123V80H124V81H125V82H126V83H127V84H124V86H125V88H126V90H124V88H123V86H122V85H121V86H120V87H119V76Z" fill="#CF1322"/>
</g>
</g>
<g filter="url(#filter3_d_615_0)">
<g clip-path="url(#clip2_615_0)">
<path d="M25 35H27V36H28V37H29V36H30V35H32V36H30V37H29V43H30V44H29V49H30V50H32V51H30V50H29V49H28V50H27V51H25V50H27V49H28V44H27V43H28V37H27V36H25V35Z" fill="#107C41"/>
</g>
</g>
<g filter="url(#filter4_d_615_0)">
<g clip-path="url(#clip3_615_0)">
<path d="M102 25H103V26H104V27H105V28H106V29H107V30H108V31H109V32H110V33H111V34H112V35H113V36H109V37H110V39H111V41H110V42H108V41H107V39H106V37H105V38H104V39H103V40H102V25Z" fill="white"/>
<path d="M103 27H104V28H105V29H106V30H107V31H108V32H109V33H110V34H111V35H108V37H109V39H110V41H108V39H107V37H106V36H105V37H104V38H103V27Z" fill="#2797FF"/>
</g>
</g>
</g>
<defs>
<filter id="filter0_d_615_0" x="0.5" y="0.5" width="145" height="144.5" filterUnits="userSpaceOnUse" color-interpolation-filters="sRGB">
<feFlood flood-opacity="0" result="BackgroundImageFix"/>
<feColorMatrix in="SourceAlpha" type="matrix" values="0 0 0 0 0 0 0 0 0 0 0 0 0 0 0 0 0 0 127 0" result="hardAlpha"/>
<feOffset dy="2"/>
<feGaussianBlur stdDeviation="4"/>
<feColorMatrix type="matrix" values="0 0 0 0 0 0 0 0 0 0 0 0 0 0 0 0 0 0 0.15 0"/>
<feBlend mode="normal" in2="BackgroundImageFix" result="effect1_dropShadow_615_0"/>
<feBlend mode="normal" in="SourceGraphic" in2="effect1_dropShadow_615_0" result="shape"/>
</filter>
<filter id="filter1_d_615_0" x="53" y="111" width="28" height="28" filterUnits="userSpaceOnUse" color-interpolation-filters="sRGB">
<feFlood flood-opacity="0" result="BackgroundImageFix"/>
<feColorMatrix in="SourceAlpha" type="matrix" values="0 0 0 0 0 0 0 0 0 0 0 0 0 0 0 0 0 0 127 0" result="hardAlpha"/>
<feOffset/>
<feGaussianBlur stdDeviation="2"/>
<feColorMatrix type="matrix" values="0 0 0 0 0 0 0 0 0 0 0 0 0 0 0 0 0 0 0.32 0"/>
<feBlend mode="normal" in2="BackgroundImageFix" result="effect1_dropShadow_615_0"/>
<feBlend mode="normal" in="SourceGraphic" in2="effect1_dropShadow_615_0" result="shape"/>
</filter>
<filter id="filter2_d_615_0" x="109" y="69" width="28" height="28" filterUnits="userSpaceOnUse" color-interpolation-filters="sRGB">
<feFlood flood-opacity="0" result="BackgroundImageFix"/>
<feColorMatrix in="SourceAlpha" type="matrix" values="0 0 0 0 0 0 0 0 0 0 0 0 0 0 0 0 0 0 127 0" result="hardAlpha"/>
<feOffset/>
<feGaussianBlur stdDeviation="2"/>
<feColorMatrix type="matrix" values="0 0 0 0 0 0 0 0 0 0 0 0 0 0 0 0 0 0 0.32 0"/>
<feBlend mode="normal" in2="BackgroundImageFix" result="effect1_dropShadow_615_0"/>
<feBlend mode="normal" in="SourceGraphic" in2="effect1_dropShadow_615_0" result="shape"/>
</filter>
<filter id="filter3_d_615_0" x="14" y="29" width="28" height="28" filterUnits="userSpaceOnUse" color-interpolation-filters="sRGB">
<feFlood flood-opacity="0" result="BackgroundImageFix"/>
<feColorMatrix in="SourceAlpha" type="matrix" values="0 0 0 0 0 0 0 0 0 0 0 0 0 0 0 0 0 0 127 0" result="hardAlpha"/>
<feOffset/>
<feGaussianBlur stdDeviation="2"/>
<feColorMatrix type="matrix" values="0 0 0 0 0 0 0 0 0 0 0 0 0 0 0 0 0 0 0.32 0"/>
<feBlend mode="normal" in2="BackgroundImageFix" result="effect1_dropShadow_615_0"/>
<feBlend mode="normal" in="SourceGraphic" in2="effect1_dropShadow_615_0" result="shape"/>
</filter>
<filter id="filter4_d_615_0" x="93" y="20" width="28" height="28" filterUnits="userSpaceOnUse" color-interpolation-filters="sRGB">
<feFlood flood-opacity="0" result="BackgroundImageFix"/>
<feColorMatrix in="SourceAlpha" type="matrix" values="0 0 0 0 0 0 0 0 0 0 0 0 0 0 0 0 0 0 127 0" result="hardAlpha"/>
<feOffset/>
<feGaussianBlur stdDeviation="2"/>
<feColorMatrix type="matrix" values="0 0 0 0 0 0 0 0 0 0 0 0 0 0 0 0 0 0 0.32 0"/>
<feBlend mode="normal" in2="BackgroundImageFix" result="effect1_dropShadow_615_0"/>
<feBlend mode="normal" in="SourceGraphic" in2="effect1_dropShadow_615_0" result="shape"/>
</filter>
<clipPath id="clip0_615_0">
<rect width="11" height="17" fill="white" transform="translate(62 116)"/>
</clipPath>
<clipPath id="clip1_615_0">
<rect width="11" height="17" fill="white" transform="translate(118 74)"/>
</clipPath>
<clipPath id="clip2_615_0">
<rect width="7" height="16" fill="white" transform="translate(25 35)"/>
</clipPath>
<clipPath id="clip3_615_0">
<rect width="11" height="17" fill="white" transform="translate(102 25)"/>
</clipPath>
</defs>
</svg>
