<svg width="128" height="96" viewBox="0 0 128 96" fill="none" xmlns="http://www.w3.org/2000/svg">
<path d="M89 39L106.5 28.5L124 39L106.5 49.5L89 39Z" fill="#107C41" stroke="#0A4A27" stroke-width="2" stroke-linejoin="round"/>
<path d="M91.5 28.5L106.5 19.5L121.5 28.5L106.5 37.5L91.5 28.5Z" fill="#107C41" stroke="#0A4A27" stroke-width="2" stroke-linejoin="round"/>
<path d="M94 19.5L106.5 12L119 19.5L106.5 27L94 19.5Z" fill="#107C41" stroke="#0A4A27" stroke-width="2" stroke-linejoin="round"/>
<path d="M96.5 12L106.5 6L116.5 12L106.5 18L96.5 12Z" fill="#107C41" stroke="#0A4A27" stroke-width="2" stroke-linejoin="round"/>
<path d="M4 59.75L16.5 52.25L29 59.75L16.5 67.25L4 59.75Z" fill="#107C41" stroke="#0A4A27" stroke-width="2" stroke-linejoin="round"/>
<path d="M6.5 52.25L16.5 46.25L26.5 52.25L16.5 58.25L6.5 52.25Z" fill="#107C41" stroke="#0A4A27" stroke-width="2" stroke-linejoin="round"/>
<path d="M9 46.25L16.5 41.75L24 46.25L16.5 50.75L9 46.25Z" fill="#107C41" stroke="#0A4A27" stroke-width="2" stroke-linejoin="round"/>
<path d="M11.5 41.75L16.5 38.75L21.5 41.75L16.5 44.75L11.5 41.75Z" fill="#107C41" stroke="#0A4A27" stroke-width="2" stroke-linejoin="round"/>
<path d="M29 71L64 50L99 71L64 92L29 71Z" fill="#107C41" stroke="white" stroke-width="2" stroke-linejoin="round"/>
<path d="M34 50L64 32L94 50L64 68L34 50Z" fill="#107C41" stroke="white" stroke-width="2" stroke-linejoin="round"/>
<path d="M39 32L64 17L89 32L64 47L39 32Z" fill="#107C41" stroke="white" stroke-width="2" stroke-linejoin="round"/>
<path d="M44 16L64 4L84 16L64 28L44 16Z" fill="#107C41" stroke="white" stroke-width="2" stroke-linejoin="round"/>
</svg>
