<svg width="146" height="138" viewBox="0 0 146 138" fill="none" xmlns="http://www.w3.org/2000/svg">
<g clip-path="url(#clip0_1_2)">
<g filter="url(#filter0_d_1_2)">
<path d="M113 103H137V119C137 123.418 133.418 127 129 127H113V103Z" fill="white" stroke="#D2D2D2"/>
<path d="M113 103H89V127H113V103Z" fill="white" stroke="#D2D2D2"/>
<path d="M89 103H41V127H89V103Z" fill="white" stroke="#D2D2D2"/>
<path d="M9 103H41V127H17C12.5817 127 9 123.418 9 119V103Z" fill="white" stroke="#D2D2D2"/>
<path d="M137 79H113V103H137V79Z" fill="white" stroke="#D2D2D2"/>
<path d="M113 79H89V103H113V79Z" fill="white" stroke="#D2D2D2"/>
<path d="M89 79H41V103H89V79Z" fill="white" stroke="#D2D2D2"/>
<path d="M41 79H9V103H41V79Z" fill="white" stroke="#D2D2D2"/>
<path d="M137 55H113V79H137V55Z" fill="white" stroke="#D2D2D2"/>
<path d="M113 55H89V79H113V55Z" fill="white" stroke="#D2D2D2"/>
<path d="M89 55H41V79H89V55Z" fill="white" stroke="#D2D2D2"/>
<path d="M41 55H9V79H41V55Z" fill="white" stroke="#D2D2D2"/>
<path d="M137 31H113V55H137V31Z" fill="white" stroke="#D2D2D2"/>
<path d="M113 31H89V55H113V31Z" fill="white" stroke="#D2D2D2"/>
<path d="M113 31H41V79H113V31Z" fill="#CFE5D9" stroke="#D2D2D2"/>
<path d="M41 31H9V55H41V31Z" fill="white" stroke="#D2D2D2"/>
<path d="M113 7H129C133.418 7 137 10.5817 137 15V31H113V7Z" fill="white" stroke="#D2D2D2"/>
<path d="M113 7H89V31H113V7Z" fill="white" stroke="#D2D2D2"/>
<path d="M89 7H41V31H89V7Z" fill="white" stroke="#D2D2D2"/>
<path d="M9 15C9 10.5817 12.5817 7 17 7H41V31H9V15Z" fill="white" stroke="#D2D2D2"/>
<path d="M129 113H121C119.895 113 119 113.895 119 115C119 116.105 119.895 117 121 117H129C130.105 117 131 116.105 131 115C131 113.895 130.105 113 129 113Z" fill="#D2D2D2"/>
<path d="M105 113H97C95.8954 113 95 113.895 95 115C95 116.105 95.8954 117 97 117H105C106.105 117 107 116.105 107 115C107 113.895 106.105 113 105 113Z" fill="#D2D2D2"/>
<path d="M31 113H19C17.8954 113 17 113.895 17 115C17 116.105 17.8954 117 19 117H31C32.1046 117 33 116.105 33 115C33 113.895 32.1046 113 31 113Z" fill="#D2D2D2"/>
<path d="M129 89H121C119.895 89 119 89.8954 119 91C119 92.1046 119.895 93 121 93H129C130.105 93 131 92.1046 131 91C131 89.8954 130.105 89 129 89Z" fill="#D2D2D2"/>
<path d="M105 89H97C95.8954 89 95 89.8954 95 91C95 92.1046 95.8954 93 97 93H105C106.105 93 107 92.1046 107 91C107 89.8954 106.105 89 105 89Z" fill="#D2D2D2"/>
<path d="M71 93H79C80.1046 93 81 92.1046 81 91C81 89.8954 80.1046 89 79 89H71C69.8954 89 69 89.8954 69 91C69 92.1046 69.8954 93 71 93Z" fill="#D2D2D2"/>
<path d="M63 117H79C80.1046 117 81 116.105 81 115C81 113.895 80.1046 113 79 113H63C61.8954 113 61 113.895 61 115C61 116.105 61.8954 117 63 117Z" fill="#D2D2D2"/>
<path d="M51 93H63C64.1046 93 65 92.1046 65 91C65 89.8954 64.1046 89 63 89H51C49.8954 89 49 89.8954 49 91C49 92.1046 49.8954 93 51 93Z" fill="#D2D2D2"/>
<path d="M51 117H55C56.1046 117 57 116.105 57 115C57 113.895 56.1046 113 55 113H51C49.8954 113 49 113.895 49 115C49 116.105 49.8954 117 51 117Z" fill="#D2D2D2"/>
<path d="M31 89H19C17.8954 89 17 89.8954 17 91C17 92.1046 17.8954 93 19 93H31C32.1046 93 33 92.1046 33 91C33 89.8954 32.1046 89 31 89Z" fill="#D2D2D2"/>
<path d="M129 65H121C119.895 65 119 65.8954 119 67C119 68.1046 119.895 69 121 69H129C130.105 69 131 68.1046 131 67C131 65.8954 130.105 65 129 65Z" fill="#D2D2D2"/>
<path d="M105 65H97C95.8954 65 95 65.8954 95 67C95 68.1046 95.8954 69 97 69H105C106.105 69 107 68.1046 107 67C107 65.8954 106.105 65 105 65Z" fill="#D2D2D2"/>
<path d="M79 65H75C73.8954 65 73 65.8954 73 67C73 68.1046 73.8954 69 75 69H79C80.1046 69 81 68.1046 81 67C81 65.8954 80.1046 65 79 65Z" fill="#D2D2D2"/>
<path d="M67 65H51C49.8954 65 49 65.8954 49 67C49 68.1046 49.8954 69 51 69H67C68.1046 69 69 68.1046 69 67C69 65.8954 68.1046 65 67 65Z" fill="#D2D2D2"/>
<path d="M31 65H19C17.8954 65 17 65.8954 17 67C17 68.1046 17.8954 69 19 69H31C32.1046 69 33 68.1046 33 67C33 65.8954 32.1046 65 31 65Z" fill="#D2D2D2"/>
<path d="M31 41H19C17.8954 41 17 41.8954 17 43C17 44.1046 17.8954 45 19 45H31C32.1046 45 33 44.1046 33 43C33 41.8954 32.1046 41 31 41Z" fill="#D2D2D2"/>
<path d="M129 41H121C119.895 41 119 41.8954 119 43C119 44.1046 119.895 45 121 45H129C130.105 45 131 44.1046 131 43C131 41.8954 130.105 41 129 41Z" fill="#D2D2D2"/>
<path d="M105 41H97C95.8954 41 95 41.8954 95 43C95 44.1046 95.8954 45 97 45H105C106.105 45 107 44.1046 107 43C107 41.8954 106.105 41 105 41Z" fill="#D2D2D2"/>
<path d="M79 41H67C65.8954 41 65 41.8954 65 43C65 44.1046 65.8954 45 67 45H79C80.1046 45 81 44.1046 81 43C81 41.8954 80.1046 41 79 41Z" fill="#D2D2D2"/>
<path d="M59 41H51C49.8954 41 49 41.8954 49 43C49 44.1046 49.8954 45 51 45H59C60.1046 45 61 44.1046 61 43C61 41.8954 60.1046 41 59 41Z" fill="#D2D2D2"/>
<path d="M129 17H121C119.895 17 119 17.8954 119 19C119 20.1046 119.895 21 121 21H129C130.105 21 131 20.1046 131 19C131 17.8954 130.105 17 129 17Z" fill="#D2D2D2"/>
<path d="M105 17H97C95.8954 17 95 17.8954 95 19C95 20.1046 95.8954 21 97 21H105C106.105 21 107 20.1046 107 19C107 17.8954 106.105 17 105 17Z" fill="#D2D2D2"/>
<path d="M79 17H51C49.8954 17 49 17.8954 49 19C49 20.1046 49.8954 21 51 21H79C80.1046 21 81 20.1046 81 19C81 17.8954 80.1046 17 79 17Z" fill="#D2D2D2"/>
<path d="M31 17H19C17.8954 17 17 17.8954 17 19C17 20.1046 17.8954 21 19 21H31C32.1046 21 33 20.1046 33 19C33 17.8954 32.1046 17 31 17Z" fill="#D2D2D2"/>
<path d="M113 32H42V79H113V32Z" stroke="#107C41" stroke-width="2"/>
<g filter="url(#filter1_d_1_2)">
<mask id="mask0_1_2" style="mask-type:luminance" maskUnits="userSpaceOnUse" x="102" y="71" width="11" height="17">
<path d="M113 71H102V88H113V71Z" fill="white"/>
</mask>
<g mask="url(#mask0_1_2)">
<path d="M102 71H103V72H104V73H105V74H106V75H107V76H108V77H109V78H110V79H111V80H112V81H113V82H109V83H110V85H111V87H110V88H108V87H107V85H106V83H105V84H104V85H103V86H102V71Z" fill="white"/>
<path d="M103 73H104V74H105V75H106V76H107V77H108V78H109V79H110V80H111V81H108V83H109V85H110V87H108V85H107V83H106V82H105V83H104V84H103V73Z" fill="#107C41"/>
</g>
</g>
</g>
</g>
<defs>
<filter id="filter0_d_1_2" x="0.5" y="0.5" width="145" height="137" filterUnits="userSpaceOnUse" color-interpolation-filters="sRGB">
<feFlood flood-opacity="0" result="BackgroundImageFix"/>
<feColorMatrix in="SourceAlpha" type="matrix" values="0 0 0 0 0 0 0 0 0 0 0 0 0 0 0 0 0 0 127 0" result="hardAlpha"/>
<feOffset dy="2"/>
<feGaussianBlur stdDeviation="4"/>
<feColorMatrix type="matrix" values="0 0 0 0 0 0 0 0 0 0 0 0 0 0 0 0 0 0 0.15 0"/>
<feBlend mode="normal" in2="BackgroundImageFix" result="effect1_dropShadow_1_2"/>
<feBlend mode="normal" in="SourceGraphic" in2="effect1_dropShadow_1_2" result="shape"/>
</filter>
<filter id="filter1_d_1_2" x="98" y="67" width="19" height="25" filterUnits="userSpaceOnUse" color-interpolation-filters="sRGB">
<feFlood flood-opacity="0" result="BackgroundImageFix"/>
<feColorMatrix in="SourceAlpha" type="matrix" values="0 0 0 0 0 0 0 0 0 0 0 0 0 0 0 0 0 0 127 0" result="hardAlpha"/>
<feOffset/>
<feGaussianBlur stdDeviation="2"/>
<feColorMatrix type="matrix" values="0 0 0 0 0 0 0 0 0 0 0 0 0 0 0 0 0 0 0.32 0"/>
<feBlend mode="normal" in2="BackgroundImageFix" result="effect1_dropShadow_1_2"/>
<feBlend mode="normal" in="SourceGraphic" in2="effect1_dropShadow_1_2" result="shape"/>
</filter>
<clipPath id="clip0_1_2">
<rect width="146" height="138" fill="white"/>
</clipPath>
</defs>
</svg>
