<svg width="40" height="40" viewBox="0 0 40 40" fill="none" xmlns="http://www.w3.org/2000/svg">
<path d="M13.5859 31.5308C13.5859 31.687 13.4062 31.812 13.1797 31.812C12.9219 31.8354 12.7422 31.7104 12.7422 31.5308C12.7422 31.3745 12.9219 31.2495 13.1484 31.2495C13.3828 31.2261 13.5859 31.3511 13.5859 31.5308ZM11.1562 31.1792C11.1016 31.3354 11.2578 31.5151 11.4922 31.562C11.6953 31.6401 11.9297 31.562 11.9766 31.4058C12.0234 31.2495 11.875 31.0698 11.6406 30.9995C11.4375 30.9448 11.2109 31.0229 11.1562 31.1792ZM14.6094 31.0464C14.3828 31.1011 14.2266 31.2495 14.25 31.4292C14.2734 31.5854 14.4766 31.687 14.7109 31.6323C14.9375 31.5776 15.0938 31.4292 15.0703 31.2729C15.0469 31.1245 14.8359 31.0229 14.6094 31.0464ZM19.75 1.10889C8.91406 1.10889 0.625 9.33545 0.625 20.1714C0.625 28.8354 6.07812 36.2495 13.8672 38.8589C14.8672 39.0386 15.2188 38.4214 15.2188 37.9136C15.2188 37.4292 15.1953 34.7573 15.1953 33.1167C15.1953 33.1167 9.72656 34.2886 8.57812 30.7886C8.57812 30.7886 7.6875 28.5151 6.40625 27.9292C6.40625 27.9292 4.61719 26.7026 6.53125 26.7261C6.53125 26.7261 8.47656 26.8823 9.54688 28.7417C11.2578 31.7573 14.125 30.8901 15.2422 30.3745C15.4219 29.1245 15.9297 28.2573 16.4922 27.7417C12.125 27.2573 7.71875 26.6245 7.71875 19.1089C7.71875 16.9604 8.3125 15.8823 9.5625 14.5073C9.35938 13.9995 8.69531 11.9058 9.76562 9.20264C11.3984 8.69482 15.1562 11.312 15.1562 11.312C16.7188 10.8745 18.3984 10.6479 20.0625 10.6479C21.7266 10.6479 23.4062 10.8745 24.9688 11.312C24.9688 11.312 28.7266 8.68701 30.3594 9.20264C31.4297 11.9136 30.7656 13.9995 30.5625 14.5073C31.8125 15.8901 32.5781 16.9683 32.5781 19.1089C32.5781 26.6479 27.9766 27.2495 23.6094 27.7417C24.3281 28.3589 24.9375 29.5308 24.9375 31.3667C24.9375 33.9995 24.9141 37.2573 24.9141 37.8979C24.9141 38.4058 25.2734 39.0229 26.2656 38.8433C34.0781 36.2495 39.375 28.8354 39.375 20.1714C39.375 9.33545 30.5859 1.10889 19.75 1.10889ZM8.21875 28.0542C8.11719 28.1323 8.14062 28.312 8.27344 28.4604C8.39844 28.5854 8.57812 28.6401 8.67969 28.5386C8.78125 28.4604 8.75781 28.2808 8.625 28.1323C8.5 28.0073 8.32031 27.9526 8.21875 28.0542ZM7.375 27.4214C7.32031 27.5229 7.39844 27.6479 7.55469 27.7261C7.67969 27.8042 7.83594 27.7808 7.89062 27.6714C7.94531 27.5698 7.86719 27.4448 7.71094 27.3667C7.55469 27.3198 7.42969 27.3433 7.375 27.4214ZM9.90625 30.2026C9.78125 30.3042 9.82812 30.5386 10.0078 30.687C10.1875 30.8667 10.4141 30.8901 10.5156 30.7651C10.6172 30.6636 10.5703 30.4292 10.4141 30.2808C10.2422 30.1011 10.0078 30.0776 9.90625 30.2026ZM9.01562 29.0542C8.89062 29.1323 8.89062 29.3354 9.01562 29.5151C9.14062 29.6948 9.35156 29.7729 9.45312 29.6948C9.57812 29.5933 9.57812 29.3901 9.45312 29.2104C9.34375 29.0308 9.14062 28.9526 9.01562 29.0542Z" fill="#A6A6A6"/>
</svg>
