<svg width="1357" height="352" viewBox="0 0 1357 352" fill="none" xmlns="http://www.w3.org/2000/svg">
<g clip-path="url(#clip0_1_35)">
<path d="M1286.18 96V149.1C1277.11 143.2 1266.35 139.8 1254.89 139.8C1223.01 139.8 1197 165.9 1197 197.9C1197 229.9 1223.01 256 1254.89 256C1266.45 256 1277.21 252.6 1286.18 246.7V256H1309V96H1286.18ZM1254.79 229.4C1237.56 229.4 1223.51 215.3 1223.51 198C1223.51 180.7 1237.56 166.6 1254.79 166.6C1272.03 166.6 1286.08 180.7 1286.08 198C1286.18 215.3 1272.13 229.4 1254.79 229.4Z" fill="white"/>
<path d="M1181 139.8H1155V256H1181V139.8Z" fill="white"/>
<path d="M1181 96H1155V122H1181V96Z" fill="white"/>
<path d="M1099.74 140H1073V256H1099.74V202.792C1099.74 182.826 1115.97 166.654 1136 166.654V140C1122.48 140 1110.06 144.293 1099.74 151.48V140Z" fill="white"/>
<path d="M985.215 229.4C955.736 229.4 931.772 205.5 931.772 176.1C931.772 146.7 955.736 122.8 985.215 122.8H1054V96H985.215C940.997 96 905 131.9 905 176C905 220.1 940.997 256 985.215 256H1027.23V229.3L985.215 229.4Z" fill="white"/>
<path d="M985.215 160.8V187.5H1027.23V229.4H1054V160.8H985.215Z" fill="white"/>
<path d="M865.055 96H838.2V139.8H821V166.5H838.2V219.8C838.2 239.8 854.494 256 874.611 256H889.899V229.3H874.611C869.28 229.3 865.055 225 865.055 219.8V166.5H890V139.8H865.055V96Z" fill="white"/>
<path d="M768.983 166.654C777.366 166.654 785.25 169.948 791.138 175.838L810 156.971C799.022 145.99 784.452 140 768.983 140C753.514 140 738.944 145.99 727.966 156.971C716.988 167.952 711 182.527 711 198C711 213.473 716.988 228.048 727.966 239.029C738.944 250.01 753.514 256 768.983 256C784.452 256 799.022 250.01 810 239.029L791.138 220.162C785.25 226.052 777.366 229.346 768.983 229.346C760.6 229.346 752.716 226.052 746.828 220.162C740.94 214.272 737.646 206.386 737.646 198C737.646 189.614 740.94 181.728 746.828 175.838C752.716 169.948 760.6 166.654 768.983 166.654Z" fill="white"/>
<path d="M672.181 149.284C663.114 143.394 652.352 140 640.893 140C609.007 140 583 166.055 583 198C583 229.945 609.007 256 640.893 256C652.452 256 663.214 252.606 672.181 246.716V256H695V140H672.181V149.284ZM640.893 229.446C623.655 229.446 609.605 215.37 609.605 198.1C609.605 180.83 623.655 166.754 640.893 166.754C658.132 166.754 672.181 180.83 672.181 198.1C672.181 215.37 658.132 229.446 640.893 229.446Z" fill="white"/>
<path d="M513.05 229.446C498.662 229.446 486.573 219.762 482.876 206.585H527.338H561.508H570.401C570.8 203.79 571 200.895 571 198C571 166.055 544.923 140 512.95 140C480.978 140 455 166.055 455 198C455 229.945 481.078 256 513.05 256C537.329 256 558.111 241.026 566.804 219.862H535.531C529.835 225.752 521.842 229.446 513.05 229.446ZM513.05 166.654C527.438 166.654 539.527 176.337 543.224 189.515H482.776C486.573 176.337 498.662 166.654 513.05 166.654Z" fill="white"/>
<path d="M443.9 147.4C443.9 119 420.781 96 392.458 96H346.722H320V256H346.722V198.8H380.549L413.5 256H444L409.372 195.9C429.388 189 443.9 169.8 443.9 147.4ZM392.458 172.1H346.722V122.6H392.458C406.169 122.6 417.278 133.7 417.278 147.4C417.278 161.1 406.169 172.1 392.458 172.1Z" fill="white"/>
</g>
<g clip-path="url(#clip1_1_35)">
<path d="M96 96.0002H48V112H96V96.0002Z" fill="#0A4E29"/>
<path d="M272 96H160V112H272V96Z" fill="#0A4E29"/>
<path d="M160 96H112V112H160V96Z" fill="white"/>
<path d="M248 48H72V64H248V48Z" fill="#0A4E29"/>
<path d="M160 176H112V192H160V176Z" fill="white"/>
<path d="M112 256H72V272H112V256Z" fill="#0A4E29"/>
<path d="M64 248L64 72H48L48 248H64Z" fill="#0A4E29"/>
<path d="M112.036 272L112.036 95.9999H96.0393L96.0393 272H112.036Z" fill="white"/>
<path d="M269.635 290.332L157.655 178.328L146.344 189.641L258.324 301.646L269.635 290.332Z" fill="white"/>
<path d="M112.036 96L112.036 48H96.0395L96.0395 96H112.036Z" fill="#0A4E29"/>
<path d="M272 72H256C256 67.6 252.4 64 248 64V48C261.3 48 272 58.8 272 72Z" fill="#0A4E29"/>
<path d="M64 72.0002H48C48 58.8002 58.8 48.0002 72 48.0002V64.0002C67.6 64.0002 64 67.6002 64 72.0002Z" fill="#0A4E29"/>
<path d="M72 272C58.8 272 48 261.2 48 248H64C64 252.4 67.6 256 72 256V272Z" fill="#0A4E29"/>
<path d="M111.986 176H48V192H111.986V176Z" fill="#0A4E29"/>
<path d="M272 176H208V192H272V176Z" fill="#06361C"/>
<path d="M272 192V72.0001H256.004V192H272Z" fill="#0A4E29"/>
<path d="M160 192V176C177.6 176 192 161.6 192 144C192 126.4 177.6 112 160 112V96C186.5 96 208 117.5 208 144C208 170.5 186.5 192 160 192Z" fill="white"/>
<path d="M208 304C172.7 304 144 275.3 144 240C144 204.7 172.7 176 208 176V192C181.5 192 160 213.5 160 240C160 266.5 181.5 288 208 288V304Z" fill="#06361C"/>
<path d="M272 288H224V304H272V288Z" fill="#06361C"/>
<path d="M272 304V256H256.003V304H272Z" fill="#06361C"/>
</g>
<defs>
<clipPath id="clip0_1_35">
<rect width="989" height="160" fill="white" transform="translate(320 96)"/>
</clipPath>
<clipPath id="clip1_1_35">
<rect width="224" height="256" fill="white" transform="translate(48 48)"/>
</clipPath>
</defs>
</svg>
