<svg width="128" height="96" viewBox="0 0 128 96" fill="none" xmlns="http://www.w3.org/2000/svg">
<path d="M56.1017 83.7583C55.5759 84.0339 55.0266 84.2805 54.4558 84.4949C52.74 85.1394 50.8451 85.5048 48.8465 85.5048C41.4526 85.5048 35.0116 80.4185 35.0116 73.8919C35.0116 72.0567 36.0734 70.466 37.5781 69.6281C30.8913 69.9084 29.1724 76.8781 29.1724 80.961C29.1724 92.5036 39.8113 93.675 42.1037 93.675C43.3391 93.675 45.2038 93.3152 46.3273 92.9627C46.3957 92.94 46.4639 92.917 46.5321 92.8935C50.8694 91.3976 54.5302 88.4549 56.9365 84.6404C57.2816 84.0933 56.6747 83.4578 56.1017 83.7583Z" fill="#0A4A27" stroke="#107C41"/>
<path d="M36.5174 91.708C35.1276 90.8465 33.9212 89.7106 32.965 88.3681C31.4853 86.2906 30.6007 83.7352 30.6007 80.9607C30.6007 76.8778 32.5019 73.2615 35.4324 70.9702C36.098 70.4498 36.9502 69.925 37.5781 69.6278C38.0657 69.397 38.8995 68.9813 40.0071 68.997C41.8433 69.023 43.2307 69.9592 44.0203 71.0224C44.6271 71.8393 45.0013 72.8457 45.0138 73.9382C45.0142 73.9053 48.8363 61.5 32.5061 61.5C25.6479 61.5 20 68.0108 20 73.7211C20 77.3433 20.8405 80.2352 21.8929 82.4763C24.2367 87.4684 28.5832 91.3322 33.9 93.0346C35.8255 93.6511 37.8767 93.9871 40.0071 93.9871C42.2165 93.9871 44.34 93.6237 46.3273 92.9625C45.2038 93.3149 44.0127 93.5077 42.7773 93.5077C40.4849 93.5077 38.3483 92.8429 36.5174 91.708Z" fill="#0A4A27" stroke="#107C41"/>
<path d="M43.7997 77.259C43.673 77.4229 43.2834 77.6493 43.2834 78.1439C43.2834 78.5509 43.5491 78.9435 44.0212 79.273C46.2682 80.8412 50.5034 80.6298 50.5147 80.6298C52.2632 80.6237 53.836 80.1429 55.2449 79.3193C55.8859 78.9445 56.4791 78.4993 57.0139 77.9911C58.8495 76.2469 59.9686 73.7889 59.9996 71.0579C60.0395 67.5554 58.7559 65.227 58.2283 64.1959C54.9169 57.7244 47.769 54 39.9971 54C29.0417 54 20.1485 62.8041 20.0015 73.7188C20.0757 68.009 25.7505 63.3982 32.4961 63.3982C33.0431 63.3982 36.1621 63.4516 39.0595 64.9722C41.6117 66.3117 42.9498 67.9303 43.8798 69.5359C44.8455 71.2031 45.0173 73.3087 45.0173 74.1482C45.0173 74.9878 44.594 76.2307 43.7997 77.259Z" fill="#0A4A27" stroke="#107C41"/>
<path d="M124 74C124 79.3043 121.893 84.3914 118.142 88.1421C114.391 91.8929 109.304 94 104 94C98.6957 94 93.6086 91.8929 89.8579 88.1421C86.1071 84.3914 84 79.3043 84 74C84 68.6957 86.1071 63.6086 89.8579 59.8579C93.6086 56.1071 98.6957 54 104 54C109.304 54 114.391 56.1071 118.142 59.8579C121.893 63.6086 124 68.6957 124 74Z" fill="white"/>
<path fill-rule="evenodd" clip-rule="evenodd" d="M96.0996 59.3167C95.9615 59.0775 95.6557 58.9956 95.4166 59.1337C95.1774 59.2717 95.0955 59.5775 95.2336 59.8167L96.9002 62.7034C97.0383 62.9426 97.3441 63.0245 97.5832 62.8865C97.8224 62.7484 97.9043 62.4426 97.7663 62.2034L96.0996 59.3167ZM111.1 85.2973C110.962 85.0582 110.656 84.9762 110.417 85.1143C110.177 85.2524 110.095 85.5582 110.234 85.7973L111.9 88.6841C112.038 88.9232 112.344 89.0051 112.583 88.8671C112.822 88.729 112.904 88.4232 112.766 88.1841L111.1 85.2973ZM115.114 67.583C114.976 67.3438 115.058 67.0381 115.297 66.9L118.184 65.2333C118.423 65.0952 118.729 65.1772 118.867 65.4163C119.005 65.6555 118.923 65.9613 118.684 66.0993L115.797 67.766C115.558 67.9041 115.252 67.8221 115.114 67.583ZM89.3162 81.9C89.077 82.0381 88.9951 82.3438 89.1332 82.583C89.2712 82.8221 89.577 82.9041 89.8162 82.766L92.7029 81.0993C92.9421 80.9613 93.024 80.6555 92.886 80.4163C92.7479 80.1772 92.4421 80.0952 92.2029 80.2333L89.3162 81.9Z" fill="#107C41"/>
<path fill-rule="evenodd" clip-rule="evenodd" d="M104.5 57.3331C104.5 57.057 104.276 56.8331 104 56.8331C103.724 56.8331 103.5 57.057 103.5 57.3331V60.6665C103.5 60.9426 103.724 61.1665 104 61.1665C104.276 61.1665 104.5 60.9426 104.5 60.6665V57.3331ZM104.5 87.3331C104.5 87.057 104.276 86.8331 104 86.8331C103.724 86.8331 103.5 87.057 103.5 87.3331V90.6665C103.5 90.9426 103.724 91.1665 104 91.1665C104.276 91.1665 104.5 90.9426 104.5 90.6665V87.3331ZM116.833 74C116.833 73.7238 117.057 73.5 117.333 73.5H120.667C120.943 73.5 121.167 73.7238 121.167 74C121.167 74.2761 120.943 74.5 120.667 74.5H117.333C117.057 74.5 116.833 74.2761 116.833 74ZM87.3333 73.5C87.0572 73.5 86.8333 73.7238 86.8333 74C86.8333 74.2761 87.0572 74.5 87.3333 74.5H90.6666C90.9428 74.5 91.1666 74.2761 91.1666 74C91.1666 73.7238 90.9428 73.5 90.6666 73.5H87.3333Z" fill="#107C41"/>
<path fill-rule="evenodd" clip-rule="evenodd" d="M89.8163 65.2339C89.5771 65.0958 89.2713 65.1777 89.1332 65.4169C88.9952 65.656 89.0771 65.9618 89.3163 66.0999L92.203 67.7666C92.4421 67.9046 92.7479 67.8227 92.886 67.5835C93.0241 67.3444 92.9421 67.0386 92.703 66.9005L89.8163 65.2339ZM115.797 80.2339C115.558 80.0958 115.252 80.1777 115.114 80.4169C114.976 80.656 115.058 80.9618 115.297 81.0999L118.184 82.7666C118.423 82.9046 118.729 82.8227 118.867 82.5835C119.005 82.3444 118.923 82.0386 118.684 81.9005L115.797 80.2339ZM110.417 62.8856C110.177 62.7475 110.096 62.4417 110.234 62.2026L111.9 59.3158C112.038 59.0767 112.344 58.9947 112.583 59.1328C112.822 59.2709 112.904 59.5767 112.766 59.8158L111.1 62.7026C110.962 62.9417 110.656 63.0236 110.417 62.8856ZM95.2336 88.1832C95.0956 88.4223 95.1775 88.7281 95.4166 88.8662C95.6558 89.0043 95.9616 88.9223 96.0996 88.6832L97.7663 85.7964C97.9044 85.5573 97.8224 85.2515 97.5833 85.1134C97.3442 84.9754 97.0384 85.0573 96.9003 85.2964L95.2336 88.1832Z" fill="#107C41"/>
<path d="M104 77.75L104 70.25L121.5 74L104 77.75Z" fill="#107C41" stroke="#107C41" stroke-linejoin="round"/>
<path d="M104 77.75L104 70.25L86.5 74L104 77.75Z" fill="white" stroke="#107C41" stroke-linejoin="round"/>
<path d="M7.18176 11.1818V26.5455H16.0909L23.9999 12.9091H41.8181C38.5454 6.45455 31.7272 2 23.9999 2C16.909 2 10.7272 5.63636 7.18176 11.1818Z" fill="white" stroke="#107C41"/>
<path d="M23.0909 42.0003L31.9091 33.1821V26.5458H16.0909L7.18182 11.1821C5.18182 14.273 4 18.0003 4 22.0003C4 32.7276 12.4545 41.4549 23.0909 42.0003Z" fill="white" stroke="#107C41"/>
<path d="M24 12.9086L31.9091 26.5449L23.0909 41.9995C23.3637 41.9995 23.7273 41.9995 24 41.9995C35.0909 41.9995 44 33.0904 44 21.9995C44 18.7268 43.1818 15.6358 41.8182 12.9086H24Z" fill="white" stroke="#107C41"/>
<path d="M24 31.1665C29.0627 31.1665 33.1667 27.0624 33.1667 21.9998C33.1667 16.9372 29.0627 12.8331 24 12.8331C18.9374 12.8331 14.8334 16.9372 14.8334 21.9998C14.8334 27.0624 18.9374 31.1665 24 31.1665Z" fill="white" stroke="#107C41"/>
<path d="M103.972 9.85004C102.192 7.48864 99.9032 5.55757 97.276 4.19959C94.6489 2.84161 91.7501 2.09144 88.794 2.00454C84.15 1.91154 80.942 3.30704 79.127 4.42904C81.5555 3.02054 85.07 2.22154 88.147 2.26104C96.062 2.36104 104.563 7.75154 105.825 17.4675C107.275 28.6205 99.507 37.929 88.579 37.9575C76.5565 37.988 69.244 27.343 71.1555 17.7815C71.191 17.3127 71.2601 16.847 71.362 16.388C71.5979 13.9375 72.31 11.5566 73.4585 9.37904C72.074 10.0955 70.311 12.3615 69.441 14.4605C68.1745 17.6631 67.728 21.1312 68.142 24.55C68.172 24.809 68.199 25.0675 68.233 25.3245C68.7514 28.3099 69.9404 31.1387 71.7103 33.598C73.4803 36.0573 75.7851 38.083 78.4512 39.5227C81.1174 40.9623 84.0754 41.7784 87.1025 41.9094C90.1297 42.0404 93.1471 41.4829 95.9277 40.279C98.7082 39.0751 101.179 37.256 103.155 34.9588C105.131 32.6616 106.56 29.9461 107.334 27.0167C108.109 24.0873 108.208 21.0204 107.626 18.0469C107.044 15.0734 105.794 12.2708 103.972 9.85004Z" fill="#0A4A27"/>
<path d="M105.826 17.4675C105.982 18.6686 106.033 19.8811 105.976 21.091C106.639 20.991 107.303 20.9027 107.969 20.826C107.758 16.8512 106.367 13.0296 103.972 9.85004C102.192 7.48864 99.9032 5.55757 97.2761 4.19959C94.6489 2.84161 91.7501 2.09144 88.794 2.00454C84.15 1.91154 80.942 3.30704 79.127 4.42904C81.5555 3.02054 85.07 2.22154 88.147 2.26104C96.062 2.36204 104.563 7.75004 105.826 17.4675Z" fill="#0A4A27"/>
<path d="M106.313 16.9123C105.187 6.75835 96.1315 2.19435 88.147 2.26035C85.0695 2.28535 81.5555 3.01985 79.127 4.42835C78.4844 4.80939 77.8872 5.2623 77.347 5.77835C77.4115 5.72485 77.604 5.56635 77.923 5.34735L77.9545 5.32585L77.9825 5.30685C79.161 4.51007 80.4594 3.90711 81.8285 3.52085C83.9733 2.92802 86.1963 2.66782 88.42 2.74935C92.5471 2.9958 96.4343 4.77102 99.3232 7.72864C102.212 10.6863 103.896 14.6141 104.045 18.7458C104.229 25.3493 98.824 30.6143 92.594 30.9193C88.063 31.1413 83.794 28.9488 81.709 24.5628C81.2213 23.5639 80.89 22.496 80.727 21.3963C79.739 14.7213 84.2215 9.02885 88.332 7.61935C86.1145 5.68235 80.558 5.81385 76.4225 8.85635C73.4445 11.0473 71.5125 14.3808 70.8725 18.3563C70.4121 21.4067 70.8175 24.5251 72.0425 27.3563C73.315 30.3588 75.3944 32.9501 78.05 34.8426C80.7056 36.7351 83.8336 37.855 87.087 38.0778C87.5833 38.1158 88.0807 38.1347 88.579 38.1343C101.81 38.1343 107.55 28.0908 106.313 16.9123Z" fill="#0A4A27"/>
<path d="M92.594 30.92C101.144 30.4 104.804 23.32 105.034 18.2975C105.392 10.45 100.736 1.98997 88.42 2.74997C86.1962 2.66893 83.9732 2.92963 81.8285 3.52297C80.4655 3.92562 79.1695 4.52746 77.9825 5.30897L77.9545 5.32797L77.923 5.34947C77.7317 5.4828 77.5445 5.62313 77.3615 5.77047C80.5494 3.98788 84.2328 3.29675 87.85 3.80247C94.921 4.73047 101.386 10.231 101.386 17.489C101.386 23.0735 97.0705 27.339 92.017 27.0325C84.5095 26.5825 82.617 18.8825 86.5225 15.5555C85.4695 15.329 83.4905 15.773 82.1125 17.833C80.876 19.683 80.946 22.538 81.709 24.5635C82.6601 26.6055 84.212 28.3084 86.1572 29.4443C88.1025 30.5803 90.3482 31.0951 92.594 30.92Z" fill="#0A4A27"/>
<path d="M104.008 11.3632C103.494 9.84738 102.662 8.45902 101.567 7.29117C100.266 5.9358 98.7243 4.83482 97.02 4.04467C95.5972 3.34333 94.0969 2.81152 92.55 2.46017C89.8232 1.86329 87.0014 1.84626 84.2675 2.41017C81.426 3.01017 78.9275 4.23967 77.347 5.77667C78.6073 5.06472 79.958 4.5265 81.3625 4.17667C84.0918 3.49084 86.9497 3.5023 89.6733 4.21002C92.397 4.91773 94.8989 6.29897 96.949 8.22667C97.78 9.01467 98.5073 9.90514 99.1135 10.8767C101.561 14.8562 101.33 19.8592 99.421 22.8097C98.0035 25.0017 94.9675 27.0597 92.135 27.0357C94.2669 27.1966 96.4024 26.776 98.3141 25.8188C100.226 24.8615 101.842 23.4035 102.99 21.6002C104.985 18.4882 105.053 14.5277 104.008 11.3632Z" fill="#0A4A27"/>
</svg>
