<svg width="128" height="96" viewBox="0 0 128 96" fill="none" xmlns="http://www.w3.org/2000/svg">
<g clip-path="url(#clip0_621_66)">
<mask id="path-1-inside-1_621_66" fill="white">
<rect x="32" y="36" width="36" height="24" rx="2"/>
</mask>
<rect x="32" y="36" width="36" height="24" rx="2" stroke="white" stroke-width="8" mask="url(#path-1-inside-1_621_66)"/>
<mask id="mask0_621_66" style="mask-type:alpha" maskUnits="userSpaceOnUse" x="0" y="0" width="56" height="52">
<mask id="path-2-inside-2_621_66" fill="white">
<rect x="12" width="24" height="16" rx="2"/>
</mask>
<rect x="12" width="24" height="16" rx="2" stroke="#4D4D4D" stroke-width="8" mask="url(#path-2-inside-2_621_66)"/>
<mask id="path-3-inside-3_621_66" fill="white">
<rect x="32" width="24" height="16" rx="2"/>
</mask>
<rect x="32" width="24" height="16" rx="2" stroke="#4D4D4D" stroke-width="8" mask="url(#path-3-inside-3_621_66)"/>
<mask id="path-4-inside-4_621_66" fill="white">
<rect y="12" width="16" height="16" rx="2"/>
</mask>
<rect y="12" width="16" height="16" rx="2" stroke="#4D4D4D" stroke-width="8" mask="url(#path-4-inside-4_621_66)"/>
<mask id="path-5-inside-5_621_66" fill="white">
<rect y="24" width="16" height="16" rx="2"/>
</mask>
<rect y="24" width="16" height="16" rx="2" stroke="#4D4D4D" stroke-width="8" mask="url(#path-5-inside-5_621_66)"/>
<mask id="path-6-inside-6_621_66" fill="white">
<rect y="36" width="16" height="16" rx="2"/>
</mask>
<rect y="36" width="16" height="16" rx="2" stroke="#4D4D4D" stroke-width="8" mask="url(#path-6-inside-6_621_66)"/>
<mask id="path-7-inside-7_621_66" fill="white">
<rect x="12" y="12" width="24" height="16" rx="2"/>
</mask>
<rect x="12" y="12" width="24" height="16" rx="2" stroke="#4D4D4D" stroke-width="8" mask="url(#path-7-inside-7_621_66)"/>
<mask id="path-8-inside-8_621_66" fill="white">
<rect x="32" y="12" width="24" height="16" rx="2"/>
</mask>
<rect x="32" y="12" width="24" height="16" rx="2" stroke="#4D4D4D" stroke-width="8" mask="url(#path-8-inside-8_621_66)"/>
<mask id="path-9-inside-9_621_66" fill="white">
<rect x="12" y="24" width="24" height="16" rx="2"/>
</mask>
<rect x="12" y="24" width="24" height="16" rx="2" stroke="#4D4D4D" stroke-width="8" mask="url(#path-9-inside-9_621_66)"/>
<mask id="path-10-inside-10_621_66" fill="white">
<rect x="12" y="36" width="24" height="16" rx="2"/>
</mask>
<rect x="12" y="36" width="24" height="16" rx="2" stroke="#4D4D4D" stroke-width="8" mask="url(#path-10-inside-10_621_66)"/>
<mask id="path-11-inside-11_621_66" fill="white">
<rect x="32" y="24" width="24" height="16" rx="2"/>
</mask>
<rect x="32" y="24" width="24" height="16" rx="2" stroke="#4D4D4D" stroke-width="8" mask="url(#path-11-inside-11_621_66)"/>
<mask id="path-12-inside-12_621_66" fill="white">
<rect width="16" height="16" rx="2"/>
</mask>
<rect width="16" height="16" rx="2" stroke="#4D4D4D" stroke-width="8" mask="url(#path-12-inside-12_621_66)"/>
</mask>
<g mask="url(#mask0_621_66)">
<path d="M28 52H0V0H56V32H28V52Z" fill="#0A4A27"/>
</g>
<path d="M81.4147 37.3336C83.4454 37.3336 85.2014 36.6096 86.628 35.1829C88.1254 33.6856 88.904 31.3776 88.696 29.1909L100.115 17.7722C100.894 16.9911 101.332 15.9325 101.331 14.829C101.331 13.7255 100.892 12.6673 100.112 11.8869C98.5414 10.3136 95.8 10.3136 94.2294 11.8869L82.384 23.7322C79.8334 23.9576 77.308 25.7602 77.308 28.9576C77.308 29.3616 77.336 29.7416 77.364 30.1042C77.4707 31.4789 77.5094 31.9949 75.4027 33.0482C75.1958 33.152 75.0194 33.3079 74.8909 33.5005C74.7625 33.693 74.6863 33.9157 74.6699 34.1466C74.6535 34.3775 74.6974 34.6087 74.7974 34.8175C74.8973 35.0263 75.0499 35.2056 75.24 35.3376C75.36 35.4176 78.164 37.3336 81.4147 37.3336C81.4134 37.3336 81.4134 37.3336 81.4147 37.3336ZM96.1147 13.7709C96.3992 13.498 96.7783 13.3458 97.1726 13.3463C97.5668 13.3468 97.9456 13.4999 98.2294 13.7736C98.3681 13.9122 98.4781 14.0769 98.5531 14.2581C98.6282 14.4393 98.6668 14.6335 98.6668 14.8296C98.6668 15.0257 98.6282 15.2199 98.5531 15.4011C98.4781 15.5823 98.3681 15.7469 98.2294 15.8856L88 26.1149L85.8854 24.0002L96.1147 13.7709ZM80.024 29.8976C80 29.5989 79.9747 29.2869 79.9747 28.9562C79.9747 26.8962 81.9014 26.3522 82.9214 26.3522C83.396 26.3522 83.8534 26.4496 84.2067 26.6269C85.4667 27.2602 85.8867 28.3509 86.016 29.1549C86.252 30.6082 85.7267 32.3122 84.7414 33.2976C83.82 34.2189 82.732 34.6669 81.4147 34.6669H81.4134C80.4134 34.6669 79.4414 34.4056 78.648 34.0976C80.0907 32.8002 80.1427 31.4456 80.024 29.8976Z" fill="white"/>
<g clip-path="url(#clip1_621_66)">
<path d="M125.943 71.1461L123.198 73.9067V58.087L125.943 60.8476C126.055 60.9601 126.187 61.0494 126.333 61.1104C126.479 61.1713 126.636 61.2027 126.794 61.2027C126.952 61.2027 127.109 61.1713 127.255 61.1104C127.401 61.0494 127.534 60.9601 127.645 60.8476C127.758 60.7361 127.847 60.6033 127.908 60.457C127.969 60.3108 128 60.1539 128 59.9954C128 59.837 127.969 59.6801 127.908 59.5338C127.847 59.3876 127.758 59.2548 127.645 59.1432L122.85 54.3421C122.736 54.2328 122.602 54.1472 122.455 54.09C122.163 53.97 121.835 53.97 121.543 54.09C121.396 54.1472 121.262 54.2328 121.148 54.3421L116.353 59.1432C116.241 59.2552 116.152 59.388 116.092 59.5342C116.031 59.6805 116 59.8372 116 59.9954C116 60.1537 116.031 60.3104 116.092 60.4566C116.152 60.6029 116.241 60.7357 116.353 60.8476C116.464 60.9596 116.597 61.0483 116.743 61.1089C116.889 61.1695 117.046 61.2006 117.204 61.2006C117.362 61.2006 117.518 61.1695 117.664 61.1089C117.81 61.0483 117.943 60.9596 118.055 60.8476L120.8 58.087V73.9067L118.055 71.1461C117.829 70.9201 117.523 70.7931 117.204 70.7931C116.884 70.7931 116.578 70.9201 116.353 71.1461C116.127 71.3721 116 71.6787 116 71.9983C116 72.3179 116.127 72.6245 116.353 72.8505L121.148 77.6516C121.262 77.7609 121.396 77.8466 121.543 77.9037C121.687 77.9672 121.842 78 121.999 78C122.156 78 122.311 77.9672 122.455 77.9037C122.602 77.8466 122.736 77.7609 122.85 77.6516L127.645 72.8505C127.871 72.6245 127.998 72.3179 127.998 71.9983C127.998 71.6787 127.871 71.3721 127.645 71.1461C127.534 71.0342 127.401 70.9454 127.255 70.8848C127.109 70.8243 126.952 70.7931 126.794 70.7931C126.475 70.7931 126.169 70.9201 125.943 71.1461Z" fill="white"/>
<path d="M66.7826 95.9978L76.7555 68.8594H82.3652L92.3381 95.9978H87.04L84.8584 89.7172H74.2233L72.0028 95.9978H66.7826ZM75.5868 85.8403H83.4949L79.5214 74.5585L75.5868 85.8403Z" fill="white"/>
<path d="M101.635 96.4631C99.9725 96.4631 98.6091 96.2046 97.5442 95.6877C96.4794 95.1449 95.6873 94.4341 95.1679 93.5554C94.6485 92.6766 94.3888 91.7074 94.3888 90.6477C94.3888 88.8643 95.09 87.4169 96.4924 86.3055C97.8949 85.1941 99.9985 84.6385 102.803 84.6385H107.712V84.1732C107.712 82.8551 107.335 81.8858 106.582 81.2655C105.829 80.6452 104.894 80.3351 103.777 80.3351C102.764 80.3351 101.881 80.5806 101.128 81.0717C100.375 81.5369 99.9076 82.2348 99.7258 83.1652H94.8562C94.9861 81.7695 95.4536 80.5548 96.2587 79.5209C97.0898 78.4871 98.1546 77.6988 99.4531 77.156C100.752 76.5874 102.206 76.3031 103.816 76.3031C106.569 76.3031 108.738 76.988 110.322 78.3578C111.906 79.7277 112.698 81.6661 112.698 84.1732V95.9978H108.452L107.985 92.8963C107.413 93.9301 106.608 94.7831 105.569 95.4551C104.556 96.1271 103.245 96.4631 101.635 96.4631ZM102.764 92.5861C104.193 92.5861 105.297 92.1209 106.076 91.1905C106.881 90.26 107.387 89.1098 107.595 87.74H103.349C102.024 87.74 101.076 87.9855 100.505 88.4766C99.9336 88.9418 99.6479 89.5234 99.6479 90.2212C99.6479 90.9708 99.9336 91.5523 100.505 91.9658C101.076 92.3794 101.829 92.5861 102.764 92.5861Z" fill="white"/>
</g>
</g>
<defs>
<clipPath id="clip0_621_66">
<rect width="128" height="96" fill="white"/>
</clipPath>
<clipPath id="clip1_621_66">
<rect width="64" height="42" fill="white" transform="translate(64 54)"/>
</clipPath>
</defs>
</svg>
