<svg width="21" height="24" viewBox="0 0 21 24" fill="none" xmlns="http://www.w3.org/2000/svg">
<g clip-path="url(#clip0_1_257)">
<mask id="mask0_1_257" style="mask-type:luminance" maskUnits="userSpaceOnUse" x="0" y="0" width="21" height="24">
<path d="M21 0H0V24H21V0Z" fill="white"/>
</mask>
<g mask="url(#mask0_1_257)">
<path d="M4.5 4.5H0V6H4.5V4.5Z" fill="#107C41"/>
<path d="M21 4.5H10.5V6H21V4.5Z" fill="#107C41"/>
<path d="M10.5 4.5H6V6H10.5V4.5Z" fill="#107C41"/>
<path d="M18.75 0H2.25V1.5H18.75V0Z" fill="#107C41"/>
<path d="M10.5 12H6V13.5H10.5V12Z" fill="#107C41"/>
<path d="M6 19.5H2.25V21H6V19.5Z" fill="#107C41"/>
<path d="M1.5 18.75V2.25H0V18.75H1.5Z" fill="#107C41"/>
<path d="M6.00333 21V4.5H4.50366V21H6.00333Z" fill="#107C41"/>
<path d="M20.7782 22.7187L10.2801 12.2183L9.21967 13.2789L19.7178 23.7793L20.7782 22.7187Z" fill="#107C41"/>
<path d="M6.00333 4.5V0H4.50366V4.5H6.00333Z" fill="#107C41"/>
<path d="M21 2.25H19.5C19.5 1.8375 19.1625 1.5 18.75 1.5V0C19.9969 0 21 1.0125 21 2.25Z" fill="#107C41"/>
<path d="M1.5 2.25H0C0 1.0125 1.0125 0 2.25 0V1.5C1.8375 1.5 1.5 1.8375 1.5 2.25Z" fill="#107C41"/>
<path d="M2.25 21C1.0125 21 0 19.9875 0 18.75H1.5C1.5 19.1625 1.8375 19.5 2.25 19.5V21Z" fill="#107C41"/>
<path d="M5.99866 12H0V13.5H5.99866V12Z" fill="#107C41"/>
<path d="M21 12H15V13.5H21V12Z" fill="#107C41"/>
<path d="M21 13.5V2.25H19.5003V13.5H21Z" fill="#107C41"/>
<path d="M10.5 13.5V12C12.15 12 13.5 10.65 13.5 9C13.5 7.35 12.15 6 10.5 6V4.5C12.9844 4.5 15 6.51563 15 9C15 11.4844 12.9844 13.5 10.5 13.5Z" fill="#107C41"/>
<path d="M15 24C11.6906 24 9 21.3094 9 18C9 14.6906 11.6906 12 15 12V13.5C12.5156 13.5 10.5 15.5156 10.5 18C10.5 20.4844 12.5156 22.5 15 22.5V24Z" fill="#107C41"/>
<path d="M21 22.5H16.5V24H21V22.5Z" fill="#107C41"/>
<path d="M21 24V19.5H19.5003V24H21Z" fill="#107C41"/>
</g>
</g>
<defs>
<clipPath id="clip0_1_257">
<rect width="21" height="24" fill="white"/>
</clipPath>
</defs>
</svg>
