<svg width="146" height="138" viewBox="0 0 146 138" fill="none" xmlns="http://www.w3.org/2000/svg">
<g filter="url(#filter0_d_616_10724)">
<path d="M125 103H137V119C137 123.418 133.418 127 129 127H125V103Z" fill="white" stroke="#D2D2D2"/>
<path d="M101 103H125V127H101V103Z" fill="white" stroke="#D2D2D2"/>
<rect x="77" y="103" width="24" height="24" fill="white" stroke="#D2D2D2"/>
<rect x="29" y="103" width="48" height="24" fill="white" stroke="#D2D2D2"/>
<path d="M9 103H41V127H17C12.5817 127 9 123.418 9 119V103Z" fill="#CFE5D9" stroke="#9FCBB3"/>
<rect x="125" y="79" width="12" height="24" fill="white" stroke="#D2D2D2"/>
<rect x="101" y="79" width="24" height="24" fill="white" stroke="#D2D2D2"/>
<rect x="77" y="79" width="24" height="24" fill="white" stroke="#D2D2D2"/>
<rect x="29" y="79" width="48" height="24" fill="white" stroke="#D2D2D2"/>
<rect x="9" y="79" width="32" height="24" fill="#CFE5D9" stroke="#9FCBB3"/>
<rect x="125" y="55" width="12" height="24" fill="white" stroke="#D2D2D2"/>
<rect x="101" y="55" width="24" height="24" fill="white" stroke="#D2D2D2"/>
<rect x="77" y="55" width="24" height="24" fill="white" stroke="#D2D2D2"/>
<rect x="29" y="55" width="48" height="24" fill="white" stroke="#D2D2D2"/>
<rect x="9" y="55" width="32" height="24" fill="#CFE5D9" stroke="#9FCBB3"/>
<rect x="125" y="31" width="12" height="24" fill="white" stroke="#D2D2D2"/>
<rect x="101" y="31" width="24" height="24" fill="white" stroke="#D2D2D2"/>
<rect x="77" y="31" width="24" height="24" fill="white" stroke="#D2D2D2"/>
<rect x="29" y="31" width="48" height="24" fill="white" stroke="#D2D2D2"/>
<rect x="9" y="31" width="32" height="24" fill="#CFE5D9" stroke="#9FCBB3"/>
<path d="M9 15C9 10.5817 12.5817 7 17 7H41V31H9V15Z" fill="#409667" stroke="#107C41"/>
<path d="M131 115C131 113.895 131.895 113 133 113H137V117H133C131.895 117 131 116.105 131 115Z" fill="#D2D2D2"/>
<rect x="107" y="113" width="12" height="4" rx="2" fill="#D2D2D2"/>
<rect x="83" y="113" width="12" height="4" rx="2" fill="#D2D2D2"/>
<rect x="17" y="113" width="16" height="4" rx="2" fill="#9FCBB3"/>
<path d="M131 91C131 89.8954 131.895 89 133 89H137V93H133C131.895 93 131 92.1046 131 91Z" fill="#D2D2D2"/>
<rect x="107" y="89" width="12" height="4" rx="2" fill="#D2D2D2"/>
<rect x="83" y="89" width="12" height="4" rx="2" fill="#D2D2D2"/>
<rect x="69" y="93" width="12" height="4" rx="2" transform="rotate(-180 69 93)" fill="#D2D2D2"/>
<rect x="69" y="117" width="20" height="4" rx="2" transform="rotate(-180 69 117)" fill="#D2D2D2"/>
<rect x="53" y="93" width="16" height="4" rx="2" transform="rotate(-180 53 93)" fill="#D2D2D2"/>
<rect x="45" y="117" width="8" height="4" rx="2" transform="rotate(-180 45 117)" fill="#D2D2D2"/>
<rect x="17" y="89" width="16" height="4" rx="2" fill="#9FCBB3"/>
<path d="M131 67C131 65.8954 131.895 65 133 65H137V69H133C131.895 69 131 68.1046 131 67Z" fill="#D2D2D2"/>
<rect x="107" y="65" width="12" height="4" rx="2" fill="#D2D2D2"/>
<rect x="83" y="65" width="12" height="4" rx="2" fill="#D2D2D2"/>
<rect x="17" y="65" width="16" height="4" rx="2" fill="#9FCBB3"/>
<rect x="17" y="41" width="16" height="4" rx="2" fill="#9FCBB3"/>
<path d="M131 43C131 41.8954 131.895 41 133 41H137V45H133C131.895 45 131 44.1046 131 43Z" fill="#D2D2D2"/>
<rect x="107" y="41" width="12" height="4" rx="2" fill="#D2D2D2"/>
<rect x="83" y="41" width="12" height="4" rx="2" fill="#D2D2D2"/>
<rect x="53" y="41" width="16" height="4" rx="2" fill="#D2D2D2"/>
<rect x="37" y="41" width="12" height="4" rx="2" fill="#D2D2D2"/>
<rect x="119" y="17" width="12" height="4" rx="2" fill="#107C41"/>
<rect x="95" y="17" width="12" height="4" rx="2" fill="#107C41"/>
<rect x="49" y="17" width="32" height="4" rx="2" fill="#107C41"/>
<rect x="17" y="17" width="16" height="4" rx="2" fill="#107C41"/>
<rect x="61" y="65" width="8" height="4" rx="2" fill="#D2D2D2"/>
<rect x="37" y="65" width="20" height="4" rx="2" fill="#D2D2D2"/>
<g filter="url(#filter1_d_616_10724)">
<path d="M101 7H125V31H101V7Z" fill="#409667" stroke="#107C41"/>
<path d="M125 7H129C133.418 7 137 10.5817 137 15V31H125V7Z" fill="#409667" stroke="#107C41"/>
<rect x="77" y="7" width="24" height="24" fill="#409667" stroke="#107C41"/>
<rect x="29" y="7" width="48" height="24" fill="#409667" stroke="#107C41"/>
</g>
<rect x="107" y="17" width="12" height="4" rx="2" fill="#107C41"/>
<path d="M131 19C131 17.8954 131.895 17 133 17H137V21H133C131.895 21 131 20.1046 131 19Z" fill="#107C41"/>
<rect x="83" y="17" width="12" height="4" rx="2" fill="#107C41"/>
<rect x="37" y="17" width="32" height="4" rx="2" fill="#107C41"/>
<g filter="url(#filter2_d_616_10724)">
<path d="M9 103H41V127H17C12.5817 127 9 123.418 9 119V103Z" fill="#CFE5D9" stroke="#9FCBB3"/>
<rect x="9" y="79" width="32" height="24" fill="#CFE5D9" stroke="#9FCBB3"/>
<rect x="9" y="55" width="32" height="24" fill="#CFE5D9" stroke="#9FCBB3"/>
<rect x="9" y="31" width="32" height="24" fill="#CFE5D9" stroke="#9FCBB3"/>
<path d="M9 15C9 10.5817 12.5817 7 17 7H41V31H9V15Z" fill="#409667" stroke="#107C41"/>
</g>
<rect x="17" y="17" width="16" height="4" rx="2" fill="#107C41"/>
<rect x="17" y="113" width="16" height="4" rx="2" fill="#9FCBB3"/>
<rect x="17" y="89" width="16" height="4" rx="2" fill="#9FCBB3"/>
<rect x="17" y="65" width="16" height="4" rx="2" fill="#9FCBB3"/>
<rect x="17" y="41" width="16" height="4" rx="2" fill="#9FCBB3"/>
</g>
<defs>
<filter id="filter0_d_616_10724" x="0.5" y="0.5" width="145" height="144.5" filterUnits="userSpaceOnUse" color-interpolation-filters="sRGB">
<feFlood flood-opacity="0" result="BackgroundImageFix"/>
<feColorMatrix in="SourceAlpha" type="matrix" values="0 0 0 0 0 0 0 0 0 0 0 0 0 0 0 0 0 0 127 0" result="hardAlpha"/>
<feOffset dy="2"/>
<feGaussianBlur stdDeviation="4"/>
<feColorMatrix type="matrix" values="0 0 0 0 0 0 0 0 0 0 0 0 0 0 0 0 0 0 0.15 0"/>
<feBlend mode="normal" in2="BackgroundImageFix" result="effect1_dropShadow_616_10724"/>
<feBlend mode="normal" in="SourceGraphic" in2="effect1_dropShadow_616_10724" result="shape"/>
</filter>
<filter id="filter1_d_616_10724" x="26.5" y="4.5" width="117" height="33" filterUnits="userSpaceOnUse" color-interpolation-filters="sRGB">
<feFlood flood-opacity="0" result="BackgroundImageFix"/>
<feColorMatrix in="SourceAlpha" type="matrix" values="0 0 0 0 0 0 0 0 0 0 0 0 0 0 0 0 0 0 127 0" result="hardAlpha"/>
<feOffset dx="2" dy="2"/>
<feGaussianBlur stdDeviation="2"/>
<feColorMatrix type="matrix" values="0 0 0 0 0 0 0 0 0 0 0 0 0 0 0 0 0 0 0.16 0"/>
<feBlend mode="normal" in2="BackgroundImageFix" result="effect1_dropShadow_616_10724"/>
<feBlend mode="normal" in="SourceGraphic" in2="effect1_dropShadow_616_10724" result="shape"/>
</filter>
<filter id="filter2_d_616_10724" x="6.5" y="4.5" width="41" height="129" filterUnits="userSpaceOnUse" color-interpolation-filters="sRGB">
<feFlood flood-opacity="0" result="BackgroundImageFix"/>
<feColorMatrix in="SourceAlpha" type="matrix" values="0 0 0 0 0 0 0 0 0 0 0 0 0 0 0 0 0 0 127 0" result="hardAlpha"/>
<feOffset dx="2" dy="2"/>
<feGaussianBlur stdDeviation="2"/>
<feColorMatrix type="matrix" values="0 0 0 0 0 0 0 0 0 0 0 0 0 0 0 0 0 0 0.16 0"/>
<feBlend mode="normal" in2="BackgroundImageFix" result="effect1_dropShadow_616_10724"/>
<feBlend mode="normal" in="SourceGraphic" in2="effect1_dropShadow_616_10724" result="shape"/>
</filter>
</defs>
</svg>
