<svg width="146" height="138" viewBox="0 0 146 138" fill="none" xmlns="http://www.w3.org/2000/svg">
<g filter="url(#filter0_d_616_8929)">
<path d="M113 103H137V119C137 123.418 133.418 127 129 127H113V103Z" fill="white" stroke="#D2D2D2"/>
<rect x="89" y="103" width="24" height="24" fill="white" stroke="#D2D2D2"/>
<rect x="41" y="103" width="48" height="24" fill="white" stroke="#D2D2D2"/>
<path d="M9 103H41V127H17C12.5817 127 9 123.418 9 119V103Z" fill="white" stroke="#D2D2D2"/>
<rect x="113" y="79" width="24" height="24" fill="white" stroke="#D2D2D2"/>
<rect x="89" y="79" width="24" height="24" fill="white" stroke="#D2D2D2"/>
<rect x="41" y="79" width="48" height="24" fill="white" stroke="#D2D2D2"/>
<rect x="9" y="79" width="32" height="24" fill="white" stroke="#D2D2D2"/>
<rect x="113" y="55" width="24" height="24" fill="white" stroke="#D2D2D2"/>
<rect x="89" y="55" width="24" height="24" fill="white" stroke="#D2D2D2"/>
<rect x="41" y="55" width="48" height="24" fill="white" stroke="#D2D2D2"/>
<rect x="9" y="55" width="32" height="24" fill="white" stroke="#D2D2D2"/>
<rect x="113" y="31" width="24" height="24" fill="white" stroke="#D2D2D2"/>
<rect x="89" y="31" width="24" height="24" fill="white" stroke="#D2D2D2"/>
<rect x="41" y="31" width="48" height="24" fill="white" stroke="#D2D2D2"/>
<rect x="9" y="31" width="32" height="24" fill="white" stroke="#D2D2D2"/>
<path d="M113 7H129C133.418 7 137 10.5817 137 15V31H113V7Z" fill="white" stroke="#D2D2D2"/>
<rect x="89" y="7" width="24" height="24" fill="white" stroke="#D2D2D2"/>
<rect x="41" y="7" width="48" height="24" fill="white" stroke="#D2D2D2"/>
<path d="M9 15C9 10.5817 12.5817 7 17 7H41V31H9V15Z" fill="white" stroke="#D2D2D2"/>
<rect x="119" y="113" width="12" height="4" rx="2" fill="#D2D2D2"/>
<rect x="95" y="113" width="12" height="4" rx="2" fill="#D2D2D2"/>
<rect x="17" y="113" width="16" height="4" rx="2" fill="#D2D2D2"/>
<rect x="119" y="89" width="12" height="4" rx="2" fill="#D2D2D2"/>
<rect x="95" y="89" width="12" height="4" rx="2" fill="#D2D2D2"/>
<rect x="81" y="93" width="12" height="4" rx="2" transform="rotate(-180 81 93)" fill="#D2D2D2"/>
<rect x="81" y="117" width="20" height="4" rx="2" transform="rotate(-180 81 117)" fill="#D2D2D2"/>
<rect x="65" y="93" width="16" height="4" rx="2" transform="rotate(-180 65 93)" fill="#D2D2D2"/>
<rect x="57" y="117" width="8" height="4" rx="2" transform="rotate(-180 57 117)" fill="#D2D2D2"/>
<rect x="17" y="89" width="16" height="4" rx="2" fill="#D2D2D2"/>
<rect x="119" y="65" width="12" height="4" rx="2" fill="#D2D2D2"/>
<rect x="95" y="65" width="12" height="4" rx="2" fill="#D2D2D2"/>
<rect x="73" y="65" width="8" height="4" rx="2" fill="#D2D2D2"/>
<rect x="49" y="65" width="20" height="4" rx="2" fill="#D2D2D2"/>
<rect x="17" y="65" width="16" height="4" rx="2" fill="#D2D2D2"/>
<rect x="17" y="41" width="16" height="4" rx="2" fill="#D2D2D2"/>
<rect x="119" y="41" width="12" height="4" rx="2" fill="#D2D2D2"/>
<rect x="95" y="41" width="12" height="4" rx="2" fill="#D2D2D2"/>
<rect x="65" y="41" width="16" height="4" rx="2" fill="#D2D2D2"/>
<rect x="49" y="41" width="12" height="4" rx="2" fill="#D2D2D2"/>
<rect x="119" y="17" width="12" height="4" rx="2" fill="#D2D2D2"/>
<rect x="95" y="17" width="12" height="4" rx="2" fill="#D2D2D2"/>
<rect x="49" y="17" width="32" height="4" rx="2" fill="#D2D2D2"/>
<rect x="17" y="17" width="16" height="4" rx="2" fill="#D2D2D2"/>
<rect x="41.5" y="103.5" width="47" height="23" fill="#CFE5D9" fill-opacity="0.5" stroke="#107C41"/>
<rect x="113.5" y="79.5" width="23" height="23" fill="#CFE5D9" fill-opacity="0.5" stroke="#107C41"/>
<rect x="89.5" y="55.5" width="23" height="23" fill="#CFE5D9" fill-opacity="0.5" stroke="#107C41"/>
<rect x="42" y="32" width="46" height="22" stroke="#107C41" stroke-width="2"/>
<g filter="url(#filter1_d_616_8929)">
<g clip-path="url(#clip0_616_8929)">
<path d="M66 48H67V49H68V50H69V51H70V52H71V53H72V54H73V55H74V56H75V57H76V58H77V59H73V60H74V62H75V64H74V65H72V64H71V62H70V60H69V61H68V62H67V63H66V48Z" fill="white"/>
<path d="M67 50H68V51H69V52H70V53H71V54H72V55H73V56H74V57H75V58H72V60H73V62H74V64H72V62H71V60H70V59H69V60H68V61H67V50Z" fill="#107C41"/>
</g>
</g>
</g>
<defs>
<filter id="filter0_d_616_8929" x="0.5" y="0.5" width="145" height="144.5" filterUnits="userSpaceOnUse" color-interpolation-filters="sRGB">
<feFlood flood-opacity="0" result="BackgroundImageFix"/>
<feColorMatrix in="SourceAlpha" type="matrix" values="0 0 0 0 0 0 0 0 0 0 0 0 0 0 0 0 0 0 127 0" result="hardAlpha"/>
<feOffset dy="2"/>
<feGaussianBlur stdDeviation="4"/>
<feColorMatrix type="matrix" values="0 0 0 0 0 0 0 0 0 0 0 0 0 0 0 0 0 0 0.15 0"/>
<feBlend mode="normal" in2="BackgroundImageFix" result="effect1_dropShadow_616_8929"/>
<feBlend mode="normal" in="SourceGraphic" in2="effect1_dropShadow_616_8929" result="shape"/>
</filter>
<filter id="filter1_d_616_8929" x="57" y="43" width="28" height="28" filterUnits="userSpaceOnUse" color-interpolation-filters="sRGB">
<feFlood flood-opacity="0" result="BackgroundImageFix"/>
<feColorMatrix in="SourceAlpha" type="matrix" values="0 0 0 0 0 0 0 0 0 0 0 0 0 0 0 0 0 0 127 0" result="hardAlpha"/>
<feOffset/>
<feGaussianBlur stdDeviation="2"/>
<feColorMatrix type="matrix" values="0 0 0 0 0 0 0 0 0 0 0 0 0 0 0 0 0 0 0.32 0"/>
<feBlend mode="normal" in2="BackgroundImageFix" result="effect1_dropShadow_616_8929"/>
<feBlend mode="normal" in="SourceGraphic" in2="effect1_dropShadow_616_8929" result="shape"/>
</filter>
<clipPath id="clip0_616_8929">
<rect width="11" height="17" fill="white" transform="translate(66 48)"/>
</clipPath>
</defs>
</svg>
