<svg width="146" height="138" viewBox="0 0 146 138" fill="none" xmlns="http://www.w3.org/2000/svg">
<g filter="url(#filter0_d_616_9456)">
<path d="M113 103H137V119C137 123.418 133.418 127 129 127H113V103Z" fill="white" stroke="#D2D2D2"/>
<rect x="89" y="103" width="24" height="24" fill="white" stroke="#D2D2D2"/>
<rect x="41" y="103" width="48" height="24" fill="#F4F4F4" stroke="#F4F4F4"/>
<path d="M9 103H41V127H17C12.5817 127 9 123.418 9 119V103Z" fill="white" stroke="#D2D2D2"/>
<rect x="113" y="79" width="24" height="24" fill="white" stroke="#D2D2D2"/>
<rect x="89" y="79" width="24" height="24" fill="white" stroke="#D2D2D2"/>
<rect x="41" y="79" width="48" height="24" fill="#F4F4F4" stroke="#F4F4F4"/>
<rect x="9" y="79" width="32" height="24" fill="white" stroke="#D2D2D2"/>
<rect x="113" y="55" width="24" height="24" fill="white" stroke="#D2D2D2"/>
<rect x="89" y="55" width="24" height="24" fill="white" stroke="#D2D2D2"/>
<rect x="41" y="55" width="48" height="24" fill="#F4F4F4" stroke="#F4F4F4"/>
<rect x="9" y="55" width="32" height="24" fill="white" stroke="#D2D2D2"/>
<rect x="113" y="31" width="24" height="24" fill="white" stroke="#D2D2D2"/>
<rect x="89" y="31" width="24" height="24" fill="white" stroke="#D2D2D2"/>
<rect x="41" y="31" width="48" height="24" fill="#F4F4F4" stroke="#F4F4F4"/>
<rect x="9" y="31" width="32" height="24" fill="white" stroke="#D2D2D2"/>
<path d="M113 7H129C133.418 7 137 10.5817 137 15V31H113V7Z" fill="#E9E9E9" stroke="#D2D2D2"/>
<rect x="89" y="7" width="24" height="24" fill="#E9E9E9" stroke="#D2D2D2"/>
<rect x="41" y="7" width="48" height="24" fill="#F4F4F4" stroke="#F4F4F4"/>
<path d="M9 15C9 10.5817 12.5817 7 17 7H41V31H9V15Z" fill="#E9E9E9" stroke="#D2D2D2"/>
<rect x="119" y="113" width="12" height="4" rx="2" fill="#D2D2D2"/>
<rect x="95" y="113" width="12" height="4" rx="2" fill="#D2D2D2"/>
<rect x="81" y="117" width="20" height="4" rx="2" transform="rotate(-180 81 117)" fill="#F4F4F4"/>
<rect x="57" y="117" width="8" height="4" rx="2" transform="rotate(-180 57 117)" fill="#F4F4F4"/>
<rect x="17" y="113" width="16" height="4" rx="2" fill="#D2D2D2"/>
<rect x="119" y="89" width="12" height="4" rx="2" fill="#D2D2D2"/>
<rect x="95" y="89" width="12" height="4" rx="2" fill="#D2D2D2"/>
<rect x="81" y="93" width="12" height="4" rx="2" transform="rotate(-180 81 93)" fill="#F4F4F4"/>
<rect x="65" y="93" width="16" height="4" rx="2" transform="rotate(-180 65 93)" fill="#F4F4F4"/>
<rect x="17" y="89" width="16" height="4" rx="2" fill="#D2D2D2"/>
<rect x="119" y="65" width="12" height="4" rx="2" fill="#D2D2D2"/>
<rect x="95" y="65" width="12" height="4" rx="2" fill="#D2D2D2"/>
<rect x="73" y="65" width="8" height="4" rx="2" fill="#F4F4F4"/>
<rect x="49" y="65" width="20" height="4" rx="2" fill="#F4F4F4"/>
<rect x="17" y="65" width="16" height="4" rx="2" fill="#D2D2D2"/>
<rect x="17" y="41" width="16" height="4" rx="2" fill="#D2D2D2"/>
<rect x="119" y="41" width="12" height="4" rx="2" fill="#D2D2D2"/>
<rect x="95" y="41" width="12" height="4" rx="2" fill="#D2D2D2"/>
<rect x="65" y="41" width="16" height="4" rx="2" fill="#F4F4F4"/>
<rect x="49" y="41" width="12" height="4" rx="2" fill="#F4F4F4"/>
<rect x="119" y="17" width="12" height="4" rx="2" fill="#A6A6A6"/>
<rect x="95" y="17" width="12" height="4" rx="2" fill="#A6A6A6"/>
<rect x="49" y="17" width="32" height="4" rx="2" fill="#F4F4F4"/>
<rect x="17" y="17" width="16" height="4" rx="2" fill="#A6A6A6"/>
<rect x="54" y="8" width="46" height="118" fill="#CFE5D9" fill-opacity="0.5" stroke="#107C41" stroke-width="2"/>
<rect x="93" y="117" width="20" height="4" rx="2" transform="rotate(-180 93 117)" fill="#202020"/>
<rect x="69" y="117" width="8" height="4" rx="2" transform="rotate(-180 69 117)" fill="#202020"/>
<rect x="93" y="93" width="12" height="4" rx="2" transform="rotate(-180 93 93)" fill="#202020"/>
<rect x="77" y="93" width="16" height="4" rx="2" transform="rotate(-180 77 93)" fill="#202020"/>
<rect x="85" y="65" width="8" height="4" rx="2" fill="#202020"/>
<rect x="61" y="65" width="20" height="4" rx="2" fill="#202020"/>
<rect x="77" y="41" width="16" height="4" rx="2" fill="#202020"/>
<rect x="61" y="41" width="12" height="4" rx="2" fill="#202020"/>
<rect x="61" y="17" width="32" height="4" rx="2" fill="#202020"/>
<g filter="url(#filter1_d_616_9456)">
<g clip-path="url(#clip0_616_9456)" filter="url(#filter2_d_616_9456)">
<path fill-rule="evenodd" clip-rule="evenodd" d="M107 27H95V30H93V36H95V38H96V39H105V38V36H107V27Z" fill="#107C41"/>
<path fill-rule="evenodd" clip-rule="evenodd" d="M96 26H97H98V27H97H96V26ZM93 31V30H94H95V29V28V27H96V28V29V30V31V32H95V31H94H93ZM93 34H92V33V32V31H93V32V33V34ZM94 36H93V35V34H94V35V36ZM95 37H94V36H95V37ZM96 38V37H95V38H96ZM97 39H96V38H97V39ZM102 39V40H101H100H99H98H97V39H98H99H100H101H102ZM103 39H102V38H103V39ZM105 37V38V39V40H104H103V39H104V38V37H105ZM106 36V37H105V36H106ZM107 34V35V36H106V35V34H107ZM107 28H108V29V30V31V32V33V34H107V33V32V31V30V29V28ZM104 27H105H106H107V28H106H105V29H104V28V27ZM102 27V26H103H104V27H103H102ZM101 27H102V28V29H101V28V27ZM99 27V26H100H101V27H100H99ZM99 27H98V28V29H99V28V27Z" fill="white"/>
<rect x="99" y="32" width="1" height="4" fill="white"/>
<rect x="101" y="32" width="1" height="4" fill="white"/>
<rect x="103" y="32" width="1" height="4" fill="white"/>
</g>
</g>
</g>
<defs>
<filter id="filter0_d_616_9456" x="0.5" y="0.5" width="145" height="144.5" filterUnits="userSpaceOnUse" color-interpolation-filters="sRGB">
<feFlood flood-opacity="0" result="BackgroundImageFix"/>
<feColorMatrix in="SourceAlpha" type="matrix" values="0 0 0 0 0 0 0 0 0 0 0 0 0 0 0 0 0 0 127 0" result="hardAlpha"/>
<feOffset dy="2"/>
<feGaussianBlur stdDeviation="4"/>
<feColorMatrix type="matrix" values="0 0 0 0 0 0 0 0 0 0 0 0 0 0 0 0 0 0 0.15 0"/>
<feBlend mode="normal" in2="BackgroundImageFix" result="effect1_dropShadow_616_9456"/>
<feBlend mode="normal" in="SourceGraphic" in2="effect1_dropShadow_616_9456" result="shape"/>
</filter>
<filter id="filter1_d_616_9456" x="86" y="19" width="28" height="28" filterUnits="userSpaceOnUse" color-interpolation-filters="sRGB">
<feFlood flood-opacity="0" result="BackgroundImageFix"/>
<feColorMatrix in="SourceAlpha" type="matrix" values="0 0 0 0 0 0 0 0 0 0 0 0 0 0 0 0 0 0 127 0" result="hardAlpha"/>
<feOffset/>
<feGaussianBlur stdDeviation="2"/>
<feColorMatrix type="matrix" values="0 0 0 0 0 0 0 0 0 0 0 0 0 0 0 0 0 0 0.32 0"/>
<feBlend mode="normal" in2="BackgroundImageFix" result="effect1_dropShadow_616_9456"/>
<feBlend mode="normal" in="SourceGraphic" in2="effect1_dropShadow_616_9456" result="shape"/>
</filter>
<filter id="filter2_d_616_9456" x="90" y="25" width="20" height="18" filterUnits="userSpaceOnUse" color-interpolation-filters="sRGB">
<feFlood flood-opacity="0" result="BackgroundImageFix"/>
<feColorMatrix in="SourceAlpha" type="matrix" values="0 0 0 0 0 0 0 0 0 0 0 0 0 0 0 0 0 0 127 0" result="hardAlpha"/>
<feOffset dy="1"/>
<feGaussianBlur stdDeviation="1"/>
<feColorMatrix type="matrix" values="0 0 0 0 0 0 0 0 0 0 0 0 0 0 0 0 0 0 0.3 0"/>
<feBlend mode="normal" in2="BackgroundImageFix" result="effect1_dropShadow_616_9456"/>
<feBlend mode="normal" in="SourceGraphic" in2="effect1_dropShadow_616_9456" result="shape"/>
</filter>
<clipPath id="clip0_616_9456">
<rect width="16" height="14" fill="white" transform="translate(92 26)"/>
</clipPath>
</defs>
</svg>
