<svg width="256" height="256" viewBox="0 0 256 256" fill="none" xmlns="http://www.w3.org/2000/svg">
<g clip-path="url(#clip0_713_56188)">
<rect x="160" y="48" width="48" height="96" stroke="#9FCBB3"/>
<rect x="112" y="144" width="48" height="48" stroke="#9FCBB3"/>
<rect x="160" y="144" width="48" height="96" stroke="#9FCBB3"/>
<rect x="112" y="192" width="48" height="48" stroke="#9FCBB3"/>
<rect x="112" width="48" height="48" stroke="#9FCBB3"/>
<rect x="64" width="48" height="48" stroke="#9FCBB3"/>
<rect x="112" y="48" width="48" height="48" stroke="#9FCBB3"/>
<rect x="16" y="48" width="96" height="48" stroke="#9FCBB3"/>
</g>
<g filter="url(#filter0_d_713_56188)">
<rect x="157.5" y="92" width="34.5" height="24" fill="white"/>
<rect x="157.5" y="140" width="34.5" height="24" fill="white"/>
<rect x="123" y="140" width="34.5" height="24" fill="white"/>
<path d="M157.5 164H192V180C192 184.418 188.418 188 184 188H157.5V164Z" fill="white"/>
<path d="M157.5 68H184C188.418 68 192 71.5817 192 76V92H157.5V68Z" fill="#107C41"/>
<rect x="157.5" y="116" width="34.5" height="24" fill="white"/>
<rect x="122.5" y="92" width="35" height="24" fill="white"/>
<rect x="122.5" y="164" width="35" height="24" fill="white"/>
<rect x="122.5" y="68" width="35" height="24" fill="#107C41"/>
<rect x="122.5" y="116" width="35" height="24" fill="white"/>
<rect x="88" y="92" width="34.5" height="24" fill="white"/>
<g filter="url(#filter1_i_713_56188)">
<rect x="88" y="116" width="34.5" height="24" fill="#E9E9E9"/>
</g>
<rect x="88" y="140" width="34.5" height="24" fill="white"/>
<rect x="122.5" y="140" width="35" height="24" rx="4" fill="#F4F4F4" stroke="#D2D2D2" stroke-width="2" stroke-dasharray="4 2"/>
<rect x="88" y="164" width="34.5" height="24" fill="white"/>
<rect x="88" y="68" width="34.5" height="24" fill="#107C41"/>
<path d="M64 76C64 71.5817 67.5817 68 72 68H88V92H64V76Z" fill="#107C41"/>
<rect x="64" y="116" width="24" height="24" fill="#CFE5D9"/>
<rect x="64" y="92" width="24" height="24" fill="#CFE5D9"/>
<rect x="64" y="140" width="24" height="24" fill="#CFE5D9"/>
<path d="M64 164H88V188H72C67.5817 188 64 184.418 64 180V164Z" fill="#CFE5D9"/>
<rect x="93" y="76" width="24" height="3" rx="1.5" fill="#409667"/>
<rect x="128" y="76" width="24" height="3" rx="1.5" fill="#409667"/>
<rect x="162.5" y="76" width="24" height="3" rx="1.5" fill="#409667"/>
<rect x="93" y="82" width="12" height="3" rx="1.5" fill="#409667"/>
<rect x="70" y="76" width="12" height="3" rx="1.5" fill="#409667"/>
<rect x="70" y="82" width="8" height="3" rx="1.5" fill="#409667"/>
<rect x="68" y="99.5" width="16" height="3" rx="1.5" fill="#9FCBB3"/>
<rect x="68" y="147.5" width="16" height="3" rx="1.5" fill="#9FCBB3"/>
<rect x="68" y="123.5" width="16" height="3" rx="1.5" fill="#9FCBB3"/>
<rect x="68" y="171.5" width="16" height="3" rx="1.5" fill="#9FCBB3"/>
<rect x="68" y="105.5" width="12" height="3" rx="1.5" fill="#9FCBB3"/>
<rect x="68" y="153.5" width="12" height="3" rx="1.5" fill="#9FCBB3"/>
<rect x="68" y="129.5" width="8" height="3" rx="1.5" fill="#9FCBB3"/>
<rect x="68" y="177.5" width="8" height="3" rx="1.5" fill="#9FCBB3"/>
<rect x="94" y="102.5" width="12" height="3" rx="1.5" fill="#D2D2D2"/>
<rect x="185.5" y="153.5" width="12" height="3" rx="1.5" transform="rotate(-180 185.5 153.5)" fill="#D2D2D2"/>
<rect x="166.5" y="102.5" width="16" height="3" rx="1.5" fill="#D2D2D2"/>
<rect x="132" y="174.5" width="16" height="3" rx="1.5" fill="#D2D2D2"/>
<rect x="132" y="150.5" width="16" height="3" rx="1.5" fill="#D2D2D2"/>
<rect x="163.5" y="126.5" width="12" height="3" rx="1.5" fill="#D2D2D2"/>
<rect x="177.5" y="126.5" width="8" height="3" rx="1.5" fill="#D2D2D2"/>
<rect x="131" y="102.5" width="8" height="3" rx="1.5" fill="#D2D2D2"/>
<rect x="96" y="174.5" width="8" height="3" rx="1.5" fill="#D2D2D2"/>
<rect x="141" y="102.5" width="8" height="3" rx="1.5" fill="#D2D2D2"/>
<rect x="106" y="174.5" width="8" height="3" rx="1.5" fill="#D2D2D2"/>
<rect x="97" y="150.5" width="16" height="3" rx="1.5" fill="#D2D2D2"/>
<rect x="164.5" y="174.5" width="6" height="3" rx="1.5" fill="#D2D2D2"/>
<rect x="172.5" y="174.5" width="12" height="3" rx="1.5" fill="#D2D2D2"/>
<rect x="130" y="126.5" width="20" height="3" rx="1.5" fill="#D2D2D2"/>
<rect x="108" y="102.5" width="8" height="3" rx="1.5" fill="#D2D2D2"/>
<rect x="171.5" y="153.5" width="8" height="3" rx="1.5" transform="rotate(-180 171.5 153.5)" fill="#D2D2D2"/>
<rect x="128" y="82" width="8" height="3" rx="1.5" fill="#409667"/>
<rect x="162.5" y="82" width="16" height="3" rx="1.5" fill="#409667"/>
<g filter="url(#filter2_d_713_56188)">
<rect x="92.5" y="120.5" width="35.5" height="25" fill="white"/>
</g>
<rect x="121" y="135" width="12" height="4" rx="2" transform="rotate(-180 121 135)" fill="#107C41"/>
<rect x="107" y="135" width="8" height="4" rx="2" transform="rotate(-180 107 135)" fill="#107C41"/>
<g clip-path="url(#clip1_713_56188)" filter="url(#filter3_d_713_56188)">
<path fill-rule="evenodd" clip-rule="evenodd" d="M127.2 139.9H108V144.7H104.8V154.3L108 154.3V157.5H109.6V159.1H124L124 157.5L124 154.3L124 154.3H127.2V139.9Z" fill="white"/>
<path fill-rule="evenodd" clip-rule="evenodd" d="M109.6 138.3H111.2V139.9H109.6V141.5H108V139.9H109.6V138.3ZM122.4 138.3H120.8H119.2L119.2 139.9H117.6L117.6 138.3H116H114.4V139.9H112.8L112.8 138.3H111.2V139.9H112.8L112.8 141.5H114.4V139.9H116H117.6L117.6 141.5H119.2L119.2 139.9H120.8H122.4L122.4 141.5H124H125.6H127.2V139.9H125.6H124H122.4L122.4 138.3ZM127.2 141.5H128.8V143.1V144.7H127.2V143.1V141.5ZM127.2 144.7H128.8V146.3V146.3V147.9V147.9V149.5H127.2V147.9V147.9V146.3V146.3V144.7ZM128.8 149.5H127.2V151.1H125.6V152.7H127.2L127.2 151.1H128.8V149.5ZM127.2 152.7H125.6V154.3H124V155.9H122.4V157.5H124V155.9H125.6V154.3H127.2V152.7ZM120.8 157.5H119.2V159.1L117.6 159.1H116H114.4H112.8H111.2V160.7H112.8H114.4H116H117.6H119.2L119.2 159.1H120.8V160.7H122.4H124V159.1V157.5H122.4L122.4 159.1L120.8 159.1V157.5ZM124 141.5H122.4V143.1H124V141.5ZM117.6 141.5H119.2V143.1H117.6V141.5ZM112.8 141.5H114.4V143.1H112.8V141.5ZM108 141.5H109.6V143.1V144.7H108V143.1V141.5ZM108 144.7H109.6V146.3V146.3V147.9H108V146.3H106.4H104.8L104.8 147.9V147.9V149.5H103.2V147.9V147.9V146.3H104.8L104.8 144.7H106.4H108ZM103.2 149.5H104.8V151.1H103.2V149.5ZM104.8 151.1H106.4V152.7H104.8L104.8 151.1ZM104.8 152.7H106.4L106.4 154.3H108L108 155.9H109.6V157.5H108L108 155.9H106.4L106.4 154.3H104.8V152.7ZM111.2 157.5H109.6V159.1H111.2V157.5Z" fill="#211D1E"/>
<rect x="114.4" y="147.9" width="1.6" height="6.4" fill="#211D1E"/>
<rect x="117.6" y="147.9" width="1.6" height="6.4" fill="#211D1E"/>
<rect x="120.8" y="147.9" width="1.6" height="6.4" fill="#211D1E"/>
</g>
</g>
<defs>
<filter id="filter0_d_713_56188" x="56" y="58" width="144" height="144" filterUnits="userSpaceOnUse" color-interpolation-filters="sRGB">
<feFlood flood-opacity="0" result="BackgroundImageFix"/>
<feColorMatrix in="SourceAlpha" type="matrix" values="0 0 0 0 0 0 0 0 0 0 0 0 0 0 0 0 0 0 127 0" result="hardAlpha"/>
<feOffset dy="2"/>
<feGaussianBlur stdDeviation="4"/>
<feColorMatrix type="matrix" values="0 0 0 0 0 0 0 0 0 0 0 0 0 0 0 0 0 0 0.15 0"/>
<feBlend mode="normal" in2="BackgroundImageFix" result="effect1_dropShadow_713_56188"/>
<feBlend mode="normal" in="SourceGraphic" in2="effect1_dropShadow_713_56188" result="shape"/>
</filter>
<filter id="filter1_i_713_56188" x="88" y="116" width="34.5" height="28" filterUnits="userSpaceOnUse" color-interpolation-filters="sRGB">
<feFlood flood-opacity="0" result="BackgroundImageFix"/>
<feBlend mode="normal" in="SourceGraphic" in2="BackgroundImageFix" result="shape"/>
<feColorMatrix in="SourceAlpha" type="matrix" values="0 0 0 0 0 0 0 0 0 0 0 0 0 0 0 0 0 0 127 0" result="hardAlpha"/>
<feOffset dy="4"/>
<feGaussianBlur stdDeviation="2"/>
<feComposite in2="hardAlpha" operator="arithmetic" k2="-1" k3="1"/>
<feColorMatrix type="matrix" values="0 0 0 0 0 0 0 0 0 0 0 0 0 0 0 0 0 0 0.08 0"/>
<feBlend mode="normal" in2="shape" result="effect1_innerShadow_713_56188"/>
</filter>
<filter id="filter2_d_713_56188" x="80.5" y="112.5" width="59.5" height="49" filterUnits="userSpaceOnUse" color-interpolation-filters="sRGB">
<feFlood flood-opacity="0" result="BackgroundImageFix"/>
<feColorMatrix in="SourceAlpha" type="matrix" values="0 0 0 0 0 0 0 0 0 0 0 0 0 0 0 0 0 0 127 0" result="hardAlpha"/>
<feOffset dy="4"/>
<feGaussianBlur stdDeviation="6"/>
<feColorMatrix type="matrix" values="0 0 0 0 0 0 0 0 0 0 0 0 0 0 0 0 0 0 0.32 0"/>
<feBlend mode="normal" in2="BackgroundImageFix" result="effect1_dropShadow_713_56188"/>
<feBlend mode="normal" in="SourceGraphic" in2="effect1_dropShadow_713_56188" result="shape"/>
</filter>
<filter id="filter3_d_713_56188" x="101.2" y="137.3" width="29.6001" height="26.3999" filterUnits="userSpaceOnUse" color-interpolation-filters="sRGB">
<feFlood flood-opacity="0" result="BackgroundImageFix"/>
<feColorMatrix in="SourceAlpha" type="matrix" values="0 0 0 0 0 0 0 0 0 0 0 0 0 0 0 0 0 0 127 0" result="hardAlpha"/>
<feOffset dy="1"/>
<feGaussianBlur stdDeviation="1"/>
<feColorMatrix type="matrix" values="0 0 0 0 0 0 0 0 0 0 0 0 0 0 0 0 0 0 0.3 0"/>
<feBlend mode="normal" in2="BackgroundImageFix" result="effect1_dropShadow_713_56188"/>
<feBlend mode="normal" in="SourceGraphic" in2="effect1_dropShadow_713_56188" result="shape"/>
</filter>
<clipPath id="clip0_713_56188">
<rect width="256" height="256" fill="white"/>
</clipPath>
<clipPath id="clip1_713_56188">
<rect width="25.6" height="22.4" fill="white" transform="translate(103.2 138.3)"/>
</clipPath>
</defs>
</svg>
