<svg width="256" height="256" viewBox="0 0 256 256" fill="none" xmlns="http://www.w3.org/2000/svg">
<g clip-path="url(#clip0_713_55435)">
<rect x="160" width="48" height="96" stroke="#9FCBB3"/>
<rect x="160" y="96" width="96" height="48" stroke="#9FCBB3"/>
<rect x="112" width="48" height="48" stroke="#9FCBB3"/>
<rect x="112" y="48" width="48" height="48" stroke="#9FCBB3"/>
<rect x="208" width="48" height="48" stroke="#9FCBB3"/>
<rect x="208" y="48" width="48" height="48" stroke="#9FCBB3"/>
<rect x="16" y="96" width="48" height="48" stroke="#9FCBB3"/>
</g>
<g filter="url(#filter0_d_713_55435)">
<rect x="160" y="96" width="32" height="32" fill="white" stroke="#9FCBB3" stroke-width="2"/>
<path d="M168 168H192V184C192 188.418 188.418 192 184 192H168V168Z" fill="white" stroke="#9FCBB3" stroke-width="2"/>
<path d="M160 64H184C188.418 64 192 67.5817 192 72V96H160V64Z" fill="#CFE5D9" stroke="#9FCBB3" stroke-width="2"/>
<rect x="160" y="128" width="32" height="32" fill="white" stroke="#9FCBB3" stroke-width="2"/>
<rect x="128" y="96" width="32" height="32" fill="white" stroke="#9FCBB3" stroke-width="2"/>
<rect x="128" y="160" width="32" height="32" fill="white" stroke="#9FCBB3" stroke-width="2"/>
<rect x="128" y="64" width="32" height="32" fill="#CFE5D9" stroke="#9FCBB3" stroke-width="2"/>
<rect x="128" y="128" width="32" height="32" fill="white" stroke="#9FCBB3" stroke-width="2"/>
<rect x="96" y="96" width="32" height="32" fill="white" stroke="#9FCBB3" stroke-width="2"/>
<rect x="96" y="160" width="32" height="32" fill="white" stroke="#9FCBB3" stroke-width="2"/>
<rect x="96" y="64" width="24" height="24" fill="#CFE5D9" stroke="#9FCBB3" stroke-width="2"/>
<path d="M64 72C64 67.5817 67.5817 64 72 64H88V88H64V72Z" fill="#CFE5D9" stroke="#9FCBB3" stroke-width="2"/>
<rect x="64" y="132" width="24" height="24" fill="#E5F0EB" stroke="#9FCBB3" stroke-width="2"/>
<rect x="64" y="96" width="32" height="32" fill="#E5F0EB" stroke="#9FCBB3" stroke-width="2"/>
<path d="M64 160H96V192H72C67.5817 192 64 188.418 64 184V160Z" fill="#E5F0EB" stroke="#9FCBB3" stroke-width="2"/>
<rect x="96" y="128" width="32" height="32" fill="white" stroke="#9FCBB3" stroke-width="2"/>
<path d="M158.423 112.85C157.417 112.515 156.411 112.179 155.405 111.844C155.606 111.106 155.74 110.435 155.874 109.697C158.155 98.2926 156.679 89.1019 151.514 86.083C146.616 83.1983 138.566 86.2172 130.382 93.4625C129.577 94.2004 128.771 94.9383 128.034 95.6763C127.497 95.2067 127.027 94.67 126.491 94.2004C117.971 86.4855 109.384 83.1983 104.285 86.2172C99.3878 89.1019 97.912 97.756 99.9916 108.557C100.193 109.63 100.394 110.704 100.662 111.777C99.4549 112.112 98.3145 112.515 97.174 112.917C87.1782 116.473 80 122.041 80 127.878C80 133.848 87.6478 139.886 98.0461 143.509C98.9182 143.777 99.7233 144.112 100.595 144.314C100.327 145.454 100.059 146.595 99.8574 147.735C97.912 158.402 99.4549 166.787 104.352 169.672C109.384 172.691 117.904 169.605 126.222 162.158C126.893 161.555 127.564 160.951 128.168 160.28C128.973 161.085 129.845 161.89 130.717 162.628C138.767 169.672 146.683 172.557 151.581 169.672C156.612 166.653 158.289 157.597 156.143 146.595C155.941 145.722 155.807 144.917 155.606 143.978C156.21 143.777 156.813 143.643 157.35 143.442C168.151 139.752 176 133.848 176 127.81C176 122.041 168.621 116.406 158.423 112.85ZM133.065 96.5484C140.042 90.3094 146.549 87.8943 149.501 89.6386C152.654 91.517 153.862 99.0306 151.916 108.892C151.782 109.563 151.648 110.167 151.514 110.838C147.354 109.899 143.128 109.161 138.901 108.825C136.486 105.27 133.803 101.848 130.918 98.6281C131.589 97.8901 132.327 97.2193 133.065 96.5484ZM108.713 132.775C109.585 134.452 110.457 136.129 111.396 137.806C112.335 139.483 113.342 141.161 114.348 142.771C111.396 142.435 108.512 141.966 105.627 141.362C106.432 138.544 107.505 135.727 108.713 132.775ZM108.713 123.114C107.505 120.23 106.566 117.479 105.694 114.729C108.377 114.125 111.262 113.588 114.214 113.253C113.208 114.863 112.268 116.473 111.329 118.15C110.457 119.76 109.518 121.437 108.713 123.114ZM110.792 127.945C112 125.328 113.409 122.712 114.818 120.163C116.226 117.613 117.769 115.131 119.379 112.716C122.197 112.515 125.082 112.381 127.966 112.381C130.851 112.381 133.803 112.515 136.553 112.716C138.164 115.131 139.639 117.613 141.115 120.163C142.591 122.712 143.933 125.261 145.208 127.878C143.933 130.494 142.591 133.11 141.182 135.727C139.774 138.276 138.231 140.758 136.621 143.173C133.803 143.374 130.918 143.509 127.966 143.509C125.015 143.509 122.197 143.442 119.447 143.24C117.836 140.825 116.294 138.343 114.818 135.794C113.409 133.177 112.067 130.628 110.792 127.945ZM144.671 137.739C145.61 136.062 146.549 134.318 147.421 132.641C148.629 135.391 149.702 138.209 150.574 141.161C147.69 141.831 144.738 142.368 141.786 142.704C142.792 141.093 143.732 139.416 144.671 137.739ZM147.354 123.114C146.482 121.437 145.543 119.76 144.604 118.083C143.665 116.473 142.725 114.863 141.719 113.253C144.738 113.655 147.623 114.125 150.306 114.796C149.501 117.613 148.495 120.364 147.354 123.114ZM128.034 101.58C129.979 103.794 131.857 106.075 133.602 108.423C129.912 108.221 126.155 108.221 122.465 108.423C124.277 105.94 126.155 103.66 128.034 101.58ZM106.298 89.7727C109.451 87.8943 116.428 90.5778 123.807 97.2193C124.277 97.6218 124.746 98.0914 125.216 98.561C122.331 101.781 119.648 105.202 117.166 108.758C112.939 109.161 108.713 109.831 104.553 110.771C104.285 109.764 104.084 108.825 103.883 107.819C102.205 98.561 103.346 91.517 106.298 89.7727ZM101.736 140.288C100.931 140.087 100.193 139.819 99.3878 139.551C95.3627 138.276 90.8679 136.263 87.5807 133.58C85.7023 132.238 84.4277 130.158 84.0252 127.878C84.0252 124.389 89.9287 119.894 98.5157 116.808C99.5891 116.406 100.662 116.07 101.736 115.735C103.01 119.894 104.553 123.987 106.298 127.945C104.553 131.97 103.01 136.129 101.736 140.288ZM123.539 159.073C120.453 161.957 116.897 164.238 112.939 165.848C110.86 166.855 108.444 166.989 106.298 166.117C103.346 164.372 102.071 157.597 103.748 148.473C103.95 147.4 104.151 146.326 104.419 145.253C108.646 146.192 112.872 146.796 117.166 147.131C119.648 150.687 122.331 154.175 125.283 157.395C124.746 157.999 124.143 158.536 123.539 159.073ZM128.168 154.444C126.222 152.364 124.344 150.016 122.465 147.467C124.277 147.534 126.088 147.601 127.966 147.601C129.912 147.601 131.79 147.534 133.669 147.467C131.992 149.882 130.113 152.23 128.168 154.444ZM152.654 160.213C152.453 162.561 151.379 164.708 149.568 166.184C146.616 167.928 140.243 165.647 133.4 159.609C132.595 158.938 131.857 158.2 131.052 157.395C133.937 154.175 136.553 150.754 138.969 147.131C143.262 146.796 147.556 146.125 151.782 145.119C151.983 145.924 152.117 146.662 152.319 147.467C153.124 151.626 153.258 155.919 152.654 160.213ZM156.075 139.618C155.539 139.819 155.002 139.953 154.465 140.087C153.124 135.928 151.514 131.836 149.702 127.878C151.514 123.987 152.99 119.961 154.264 115.802C155.27 116.07 156.143 116.406 157.082 116.674C165.803 119.76 171.975 124.322 171.975 127.81C171.975 131.567 165.4 136.397 156.075 139.618ZM128.034 119.156C132.797 119.156 136.621 123.114 136.621 127.945C136.621 132.775 132.797 136.733 128.034 136.733C123.27 136.733 119.447 132.775 119.447 127.945C119.447 123.114 123.27 119.156 128.034 119.156Z" fill="#107C41"/>
</g>
<defs>
<filter id="filter0_d_713_55435" x="55" y="57" width="146" height="146" filterUnits="userSpaceOnUse" color-interpolation-filters="sRGB">
<feFlood flood-opacity="0" result="BackgroundImageFix"/>
<feColorMatrix in="SourceAlpha" type="matrix" values="0 0 0 0 0 0 0 0 0 0 0 0 0 0 0 0 0 0 127 0" result="hardAlpha"/>
<feOffset dy="2"/>
<feGaussianBlur stdDeviation="4"/>
<feColorMatrix type="matrix" values="0 0 0 0 0 0 0 0 0 0 0 0 0 0 0 0 0 0 0.15 0"/>
<feBlend mode="normal" in2="BackgroundImageFix" result="effect1_dropShadow_713_55435"/>
<feBlend mode="normal" in="SourceGraphic" in2="effect1_dropShadow_713_55435" result="shape"/>
</filter>
<clipPath id="clip0_713_55435">
<rect width="256" height="256" fill="white"/>
</clipPath>
</defs>
</svg>
